<svg width="31" height="31" viewBox="0 0 31 31" fill="none" xmlns="http://www.w3.org/2000/svg">
<mask id="mask0_19081_103693" style="mask-type:luminance" maskUnits="userSpaceOnUse" x="19" y="14" width="6" height="1">
<path d="M19.3758 14.0137C19.2602 14.0137 19.165 14.1088 19.165 14.2259C19.165 14.3431 19.2602 14.4382 19.3758 14.4382H24.5918C24.7089 14.4382 24.804 14.3431 24.804 14.2259C24.804 14.1088 24.7089 14.0137 24.5918 14.0137H19.3758Z" fill="white"/>
</mask>
<g mask="url(#mask0_19081_103693)">
<path d="M24.8006 14.0137H19.1631V14.4367H24.8006V14.0137Z" fill="url(#paint0_linear_19081_103693)"/>
</g>
<mask id="mask1_19081_103693" style="mask-type:luminance" maskUnits="userSpaceOnUse" x="19" y="15" width="6" height="1">
<path d="M19.3758 15.4204C19.2602 15.4204 19.165 15.5156 19.165 15.6327C19.165 15.7483 19.2602 15.8435 19.3758 15.8435H24.5918C24.7089 15.8435 24.804 15.7483 24.804 15.6327C24.804 15.5156 24.7089 15.4204 24.5918 15.4204H19.3758Z" fill="white"/>
</mask>
<g mask="url(#mask1_19081_103693)">
<path d="M24.8006 15.4204H19.1631V15.8435H24.8006V15.4204Z" fill="url(#paint1_linear_19081_103693)"/>
</g>
<mask id="mask2_19081_103693" style="mask-type:luminance" maskUnits="userSpaceOnUse" x="19" y="16" width="6" height="2">
<path d="M19.3758 16.8286C19.2602 16.8286 19.165 16.9238 19.165 17.0409C19.165 17.158 19.2602 17.2531 19.3758 17.2531H24.5918C24.7089 17.2531 24.804 17.158 24.804 17.0409C24.804 16.9252 24.7089 16.8286 24.5918 16.8286H19.3758Z" fill="white"/>
</mask>
<g mask="url(#mask2_19081_103693)">
<path d="M24.8006 16.8286H19.1631V17.2517H24.8006V16.8286Z" fill="url(#paint2_linear_19081_103693)"/>
</g>
<mask id="mask3_19081_103693" style="mask-type:luminance" maskUnits="userSpaceOnUse" x="19" y="18" width="6" height="1">
<path d="M19.3758 18.2354C19.2602 18.2354 19.165 18.3305 19.165 18.4476C19.165 18.5647 19.2602 18.6599 19.3758 18.6599H24.5918C24.7089 18.6599 24.804 18.5647 24.804 18.4476C24.804 18.332 24.7089 18.2354 24.5918 18.2354H19.3758Z" fill="white"/>
</mask>
<g mask="url(#mask3_19081_103693)">
<path d="M24.8006 18.2354H19.1631V18.6584H24.8006V18.2354Z" fill="url(#paint3_linear_19081_103693)"/>
</g>
<mask id="mask4_19081_103693" style="mask-type:luminance" maskUnits="userSpaceOnUse" x="19" y="19" width="6" height="2">
<path d="M19.3758 19.6421C19.2602 19.6421 19.165 19.7372 19.165 19.8544C19.165 19.97 19.2602 20.0666 19.3758 20.0666H24.5918C24.7089 20.0666 24.804 19.9715 24.804 19.8544C24.804 19.7372 24.7089 19.6421 24.5918 19.6421H19.3758Z" fill="white"/>
</mask>
<g mask="url(#mask4_19081_103693)">
<path d="M24.8006 19.6421H19.1631V20.0652H24.8006V19.6421Z" fill="url(#paint4_linear_19081_103693)"/>
</g>
<path d="M7.25219 8.57471H23.2206C25.5497 8.57471 27.4293 10.491 27.4293 12.8201V17.1415C27.4293 21.8378 23.5968 25.7084 18.8625 25.7084H11.5737C6.87743 25.7084 3.00684 21.8378 3.00684 17.1415V12.8201C3.00684 10.491 4.9231 8.57471 7.25219 8.57471Z" fill="white"/>
<path d="M7.25192 8.16211H23.2203C24.4983 8.16211 25.6255 8.68765 26.4892 9.55283C27.3163 10.3799 27.8419 11.5438 27.8419 12.8217V17.1432C27.8419 19.6231 26.8274 21.8395 25.2112 23.4937C23.5951 25.1098 21.3406 26.1243 18.8608 26.1243H11.5719C9.09206 26.1243 6.8757 25.1098 5.22147 23.4937C3.60531 21.8409 2.59082 19.6231 2.59082 17.1432V12.8203C2.59082 11.5423 3.11637 10.3785 3.98154 9.55136C4.81011 8.68765 5.97393 8.16211 7.25192 8.16211ZM23.2218 8.98776H7.25192C6.19937 8.98776 5.22294 9.40058 4.54661 10.115C3.83222 10.7913 3.4194 11.7677 3.4194 12.8203V17.1418C3.4194 19.3962 4.32117 21.4252 5.82461 22.8906C7.28999 24.394 9.31897 25.2958 11.5734 25.2958H18.8622C21.1167 25.2958 23.1456 24.394 24.6491 22.8906C26.1145 21.4252 27.0543 19.3962 27.0543 17.1418V12.8203C27.0543 11.7677 26.6034 10.7913 25.9271 10.115C25.2127 9.40205 24.2729 8.98776 23.2218 8.98776Z" fill="#262626"/>
<g opacity="0.4392">
<mask id="mask5_19081_103693" style="mask-type:luminance" maskUnits="userSpaceOnUse" x="8" y="11" width="15" height="3">
<path d="M22.2816 11.4312H8.15332V13.911H22.2816V11.4312Z" fill="white"/>
</mask>
<g mask="url(#mask5_19081_103693)">
<path d="M18.5998 13.1586H11.8365C10.4839 13.1586 9.282 12.4822 8.52955 11.4297H8.15332V11.5424C8.79159 12.9331 10.2204 13.9096 11.8351 13.9096H18.5984C20.2511 13.9096 21.6418 12.9331 22.2801 11.5424V11.4297H21.9039C21.1924 12.4822 19.9891 13.1586 18.5998 13.1586Z" fill="#262626"/>
</g>
</g>
<path d="M11.4989 24.807C6.6899 24.807 2.78125 20.8998 2.78125 16.0894V16.691C2.78125 21.5 6.68844 25.4086 11.4989 25.4086H18.9385C23.7474 25.4086 27.6927 21.5014 27.6927 16.691V16.0894C27.6927 20.8983 23.7474 24.807 18.9385 24.807H11.4989Z" fill="#00A551"/>
<path d="M11.422 4.55518H19.0124C23.145 4.55518 26.6028 7.59865 27.2411 11.5439C26.7155 9.81502 25.0994 8.57508 23.2212 8.57508H7.25133C5.37313 8.57508 3.75697 9.81502 3.19336 11.5439C3.86969 7.59865 7.28939 4.55518 11.422 4.55518Z" fill="white"/>
<path d="M11.4223 4.17871H19.0127C21.1544 4.17871 23.1453 4.9297 24.6488 6.24576C26.1888 7.56035 27.2794 9.40196 27.6542 11.469C27.6923 11.6944 27.5415 11.8818 27.316 11.9199C27.0906 11.958 26.9032 11.8452 26.8651 11.6198C26.6016 10.8688 26.1142 10.1925 25.4744 9.74159C24.8362 9.25264 24.0471 8.9906 23.22 8.9906H7.25162C6.38791 8.9906 5.59886 9.2541 4.99719 9.74159C4.32086 10.1925 3.83191 10.8688 3.56987 11.6578C3.53181 11.8833 3.30637 11.996 3.08092 11.9214C2.89354 11.8467 2.78082 11.6578 2.81742 11.4705C3.15558 9.40342 4.24473 7.56328 5.78624 6.24722C7.32627 4.9297 9.2806 4.17871 11.4223 4.17871ZM19.0127 4.96776H11.4223C9.46798 4.96776 7.7025 5.68215 6.31178 6.84596C5.56079 7.48423 4.95913 8.23668 4.47018 9.10039L4.50824 9.06233C5.25923 8.49872 6.23712 8.16056 7.25162 8.16056H23.22C24.2345 8.16056 25.1743 8.49872 25.9253 9.06233L25.9634 9.10039C25.5125 8.23668 24.8742 7.48423 24.1218 6.84596C22.7706 5.68215 20.967 4.96776 19.0127 4.96776Z" fill="#262626"/>
<path d="M11.5352 4.55518H18.9001C18.1491 5.79511 16.7584 6.62222 15.2184 6.62222C13.6769 6.62076 12.3242 5.79511 11.5352 4.55518Z" fill="#00A551"/>
<path d="M11.5353 4.17871H18.9002C19.1257 4.17871 19.313 4.32949 19.313 4.55494C19.313 4.66766 19.275 4.74232 19.2384 4.81844C18.7875 5.45671 18.2239 6.02032 17.5095 6.4346C16.8332 6.81083 16.0441 7.03627 15.217 7.03627C14.3899 7.03627 13.6008 6.81083 12.9245 6.4346C12.2101 6.02178 11.6465 5.45817 11.1956 4.78184C11.0829 4.59446 11.1576 4.33096 11.3464 4.21824C11.3859 4.17871 11.4606 4.17871 11.5353 4.17871ZM18.0731 4.96776H12.3624C12.6259 5.26786 12.964 5.53137 13.3022 5.71875C13.8658 6.01885 14.5421 6.2077 15.2185 6.2077C15.9329 6.2077 16.5711 6.02032 17.1347 5.71875C17.4714 5.53137 17.8096 5.26786 18.0731 4.96776Z" fill="#262626"/>
<path d="M7.77755 11.6187H8.15378C8.79205 13.0094 10.2208 13.9858 11.8355 13.9858H18.5988C20.2516 13.9858 21.6423 13.0094 22.2806 11.6187H22.6568C24.1602 11.6187 25.4002 12.8586 25.4002 14.362V17.1801C25.4002 20.2235 22.9203 22.7034 19.8387 22.7034H10.5956C7.55211 22.7034 5.03418 20.2235 5.03418 17.1801V14.362C5.03564 12.8586 6.27558 11.6187 7.77755 11.6187Z" fill="#262626"/>
<path d="M7.77732 11.2056H8.15354C8.34092 11.2056 8.49171 11.3183 8.52977 11.4691C8.82987 12.1073 9.28076 12.6343 9.88243 13.0091C10.446 13.3853 11.1224 13.6108 11.8368 13.6108H18.6C19.3144 13.6108 19.9908 13.3853 20.591 13.0091C21.1546 12.6329 21.6435 12.1073 21.9436 11.4691C21.9817 11.3183 22.131 11.2056 22.2818 11.2056H22.658C23.5217 11.2056 24.3108 11.5818 24.8744 12.1454C25.438 12.709 25.8142 13.4981 25.8142 14.3618V17.1798C25.8142 18.796 25.1379 20.2979 24.0487 21.3886C22.9962 22.4411 21.4942 23.1174 19.84 23.1174H10.5968C8.94406 23.1174 7.47868 22.4411 6.38806 21.3886C5.29891 20.2994 4.65918 18.796 4.65918 17.1798V14.3618C4.65918 13.4981 4.99734 12.709 5.56095 12.1454C5.56095 12.1454 5.59901 12.1454 5.59901 12.1073C6.16262 11.5437 6.95167 11.2056 7.77732 11.2056ZM7.89004 12.0312H7.77732C7.13905 12.0312 6.57544 12.2947 6.16116 12.7075H6.12309C5.71027 13.1204 5.44677 13.722 5.44677 14.3603V17.1783C5.44677 18.5691 6.01037 19.8837 6.9502 20.7854C7.89004 21.7253 9.16657 22.3255 10.5954 22.3255H19.8385C21.2658 22.3255 22.5438 21.7238 23.4837 20.7854C24.4235 19.8837 24.9871 18.5691 24.9871 17.1783V14.3618C24.9871 13.7235 24.7236 13.1218 24.3108 12.709C23.8979 12.2962 23.2963 12.0327 22.658 12.0327H22.5453C22.1691 12.709 21.6435 13.2726 21.0052 13.6854C20.3289 14.1363 19.5018 14.3998 18.6 14.3998H11.8368C10.973 14.3998 10.1459 14.1363 9.43154 13.6854C8.79181 13.2712 8.26626 12.7075 7.89004 12.0312Z" fill="#262626"/>
<path d="M10.2573 22.8162C10.2573 22.5907 10.4828 22.4399 10.6701 22.4399C10.8956 22.478 11.083 22.6654 11.0464 22.8908C11.0083 23.3037 10.9717 23.7179 11.0083 24.1308C11.0464 24.5436 11.121 24.9579 11.2337 25.3707C11.2718 25.5961 11.1591 25.8216 10.9336 25.8596C10.7082 25.9343 10.4828 25.785 10.4447 25.5595C10.332 25.1087 10.2573 24.6578 10.2192 24.2069C10.1827 23.7545 10.1827 23.2671 10.2573 22.8162Z" fill="#262626"/>
<path d="M19.5384 22.8908C19.5003 22.6654 19.6511 22.478 19.8765 22.4399C20.102 22.4399 20.2894 22.5907 20.3274 22.8162C20.3655 23.2671 20.4021 23.756 20.3655 24.2069C20.3274 24.6578 20.2528 25.1087 20.14 25.5595C20.0654 25.785 19.8399 25.9358 19.6511 25.8596C19.4257 25.8216 19.2749 25.5961 19.351 25.3707C19.4637 24.9579 19.5384 24.5436 19.5384 24.1308C19.5764 23.7179 19.5764 23.3037 19.5384 22.8908Z" fill="#262626"/>
<path d="M3.98309 21.049C1.91604 20.3347 0.414062 18.3818 0.414062 16.0893C0.414062 14.0603 1.57934 12.2948 3.2321 11.3931C3.08131 11.844 3.00665 12.3329 3.00665 12.8204V17.1419C3.00665 18.5692 3.34482 19.8852 3.98309 21.049Z" fill="white"/>
<path d="M3.79593 21.4252C2.70678 21.049 1.72888 20.298 1.05255 19.3582C0.414288 18.4564 0 17.2911 0 16.0892C0 15.0001 0.300102 14.0222 0.827111 13.1585C1.35266 12.2567 2.14171 11.5423 3.08154 11.0548C3.26892 10.9421 3.49436 11.0168 3.60708 11.2422C3.64515 11.3169 3.64515 11.4296 3.64515 11.5423C3.57049 11.7297 3.49436 11.9551 3.45777 12.1806C3.4197 12.368 3.4197 12.5934 3.4197 12.8188V17.1403C3.4197 17.8166 3.49436 18.4549 3.64515 19.0566C3.79593 19.6949 4.02137 20.2965 4.32147 20.8601C4.4342 21.0856 4.35954 21.311 4.13409 21.4237C4.02137 21.4633 3.90865 21.4633 3.79593 21.4252ZM1.72888 18.9073C2.10511 19.4328 2.59259 19.8837 3.1562 20.2599C3.04348 19.9218 2.93076 19.5836 2.8561 19.2454C2.70531 18.5691 2.59259 17.8547 2.59259 17.1418V12.8203C2.59259 12.6329 2.63065 12.4441 2.63065 12.2948C2.17977 12.6329 1.80354 13.0838 1.50344 13.5728C1.09062 14.2872 0.827111 15.1509 0.827111 16.0907C0.827111 17.1418 1.16528 18.1182 1.72888 18.9073Z" fill="#262626"/>
<path d="M7.25192 8.16211H23.2203C24.4983 8.16211 25.6255 8.68765 26.4892 9.55283C27.3163 10.3799 27.8419 11.5438 27.8419 12.8217V17.1432C27.8419 19.6231 26.8274 21.8395 25.2112 23.4937C23.5951 25.1098 21.3406 26.1243 18.8608 26.1243H11.5719C9.09206 26.1243 6.8757 25.1098 5.22147 23.4937C3.60531 21.8409 2.59082 19.6231 2.59082 17.1432V12.8203C2.59082 11.5423 3.11637 10.3785 3.98154 9.55136C4.81011 8.68765 5.97393 8.16211 7.25192 8.16211ZM23.2218 8.98776H7.25192C6.19937 8.98776 5.22294 9.40058 4.54661 10.115C3.83222 10.7913 3.4194 11.7677 3.4194 12.8203V17.1418C3.4194 19.3962 4.32117 21.4252 5.82461 22.8906C7.28999 24.394 9.31897 25.2958 11.5734 25.2958H18.8622C21.1167 25.2958 23.1456 24.394 24.6491 22.8906C26.1145 21.4252 27.0543 19.3962 27.0543 17.1418V12.8203C27.0543 11.7677 26.6034 10.7913 25.9271 10.115C25.2127 9.40205 24.2729 8.98776 23.2218 8.98776Z" fill="#262626"/>
<g opacity="0.4392">
<mask id="mask6_19081_103693" style="mask-type:luminance" maskUnits="userSpaceOnUse" x="0" y="14" width="4" height="7">
<path d="M3.49564 14.1367H0.472656V20.9H3.49564V14.1367Z" fill="white"/>
</mask>
<g mask="url(#mask6_19081_103693)">
<path d="M3.00691 16.4658C2.96885 17.593 3.11963 19.0584 3.49586 20.9C0.828603 19.4346 -0.0731684 17.2183 0.790541 14.1367C1.1653 15.7148 1.91629 16.5039 3.00691 16.4658Z" fill="#262626"/>
</g>
</g>
<path d="M3.49406 20.749C3.456 20.1108 3.4194 19.7726 3.4194 19.7726C1.5412 18.6454 0.714091 16.9165 0.939534 14.6255C0.112422 17.5928 0.977596 19.6218 3.49406 20.749Z" fill="#00A551"/>
<path d="M3.79593 21.4252C2.70678 21.049 1.72888 20.298 1.05255 19.3582C0.414288 18.4564 0 17.2911 0 16.0892C0 15.0001 0.300102 14.0222 0.827111 13.1585C1.35266 12.2567 2.14171 11.5423 3.08154 11.0548C3.26892 10.9421 3.49436 11.0168 3.60708 11.2422C3.64515 11.3169 3.64515 11.4296 3.64515 11.5423C3.57049 11.7297 3.49436 11.9551 3.45777 12.1806C3.4197 12.368 3.4197 12.5934 3.4197 12.8188V17.1403C3.4197 17.8166 3.49436 18.4549 3.64515 19.0566C3.79593 19.6949 4.02137 20.2965 4.32147 20.8601C4.4342 21.0856 4.35954 21.311 4.13409 21.4237C4.02137 21.4633 3.90865 21.4633 3.79593 21.4252ZM1.72888 18.9073C2.10511 19.4328 2.59259 19.8837 3.1562 20.2599C3.04348 19.9218 2.93076 19.5836 2.8561 19.2454C2.70531 18.5691 2.59259 17.8547 2.59259 17.1418V12.8203C2.59259 12.6329 2.63065 12.4441 2.63065 12.2948C2.17977 12.6329 1.80354 13.0838 1.50344 13.5728C1.09062 14.2872 0.827111 15.1509 0.827111 16.0907C0.827111 17.1418 1.16528 18.1182 1.72888 18.9073Z" fill="#262626"/>
<path d="M26.4902 21.0124C28.5573 20.298 30.0227 18.3452 30.0227 16.0146C30.0227 13.9856 28.8954 12.2202 27.2046 11.355C27.3554 11.8059 27.4301 12.2568 27.4301 12.7457V17.1038C27.4286 18.4945 27.0904 19.8471 26.4902 21.0124Z" fill="white"/>
<path d="M27.2795 20.1856C27.8431 19.8474 28.332 19.3965 28.7448 18.8329C29.3084 18.0439 29.6085 17.0675 29.6085 16.0149C29.6085 15.1131 29.3831 14.2494 28.9322 13.497C28.6321 13.008 28.2559 12.5952 27.805 12.219C27.8431 12.4064 27.8431 12.5952 27.8431 12.7445V17.1026C27.8431 17.817 27.7684 18.5299 27.5796 19.2062C27.5049 19.5473 27.3922 19.8855 27.2795 20.1856ZM29.3831 19.3219C28.7068 20.2617 27.7669 20.9746 26.6397 21.3889C26.527 21.427 26.4143 21.427 26.3016 21.3889C26.1142 21.2762 26.0381 21.0127 26.1142 20.8253C26.4143 20.2617 26.6397 19.66 26.7905 19.0218C26.9413 18.3835 27.054 17.7438 27.054 17.1055V12.746C27.054 12.5205 27.016 12.3332 26.9794 12.1077C26.9413 11.9203 26.9047 11.6949 26.8286 11.506C26.7905 11.3933 26.7905 11.2806 26.8286 11.1679C26.9413 10.9805 27.2048 10.9044 27.3922 11.0171C28.2939 11.468 29.083 12.219 29.6085 13.0841C30.1341 13.9479 30.4357 14.9623 30.4357 16.0149C30.4357 17.2548 30.0594 18.3821 29.3831 19.3219Z" fill="#262626"/>
<g opacity="0.4392">
<mask id="mask7_19081_103693" style="mask-type:luminance" maskUnits="userSpaceOnUse" x="26" y="14" width="4" height="7">
<path d="M29.9629 14.0981H26.9414V20.8234H29.9629V14.0981Z" fill="white"/>
</mask>
<g mask="url(#mask7_19081_103693)">
<path d="M27.4284 16.4272C27.5031 17.5164 27.3157 18.9818 26.9395 20.8234C29.6067 19.3961 30.5085 17.1416 29.6448 14.0981C29.27 15.6762 28.519 16.4653 27.4284 16.4272Z" fill="#262626"/>
</g>
</g>
<path d="M26.9785 20.6744C27.0166 20.0361 27.0166 19.7345 27.0166 19.7345C28.8948 18.6073 29.7219 16.8784 29.5345 14.5874C30.3236 17.5548 29.4964 19.5837 26.9785 20.6744Z" fill="#00A551"/>
<path d="M27.2795 20.1856C27.8431 19.8474 28.332 19.3965 28.7448 18.8329C29.3084 18.0439 29.6085 17.0675 29.6085 16.0149C29.6085 15.1131 29.3831 14.2494 28.9322 13.497C28.6321 13.008 28.2559 12.5952 27.805 12.219C27.8431 12.4064 27.8431 12.5952 27.8431 12.7445V17.1026C27.8431 17.817 27.7684 18.5299 27.5796 19.2062C27.5049 19.5473 27.3922 19.8855 27.2795 20.1856ZM29.3831 19.3219C28.7068 20.2617 27.7669 20.9746 26.6397 21.3889C26.527 21.427 26.4143 21.427 26.3016 21.3889C26.1142 21.2762 26.0381 21.0127 26.1142 20.8253C26.4143 20.2617 26.6397 19.66 26.7905 19.0218C26.9413 18.3835 27.054 17.7438 27.054 17.1055V12.746C27.054 12.5205 27.016 12.3332 26.9794 12.1077C26.9413 11.9203 26.9047 11.6949 26.8286 11.506C26.7905 11.3933 26.7905 11.2806 26.8286 11.1679C26.9413 10.9805 27.2048 10.9044 27.3922 11.0171C28.2939 11.468 29.083 12.219 29.6085 13.0841C30.1341 13.9479 30.4357 14.9623 30.4357 16.0149C30.4357 17.2548 30.0594 18.3821 29.3831 19.3219Z" fill="#262626"/>
<path d="M14.8809 15.5638C14.8809 15.413 15.0316 15.2637 15.181 15.2637C15.3683 15.2637 15.4811 15.4145 15.4811 15.5638V19.6964C15.4811 19.8472 15.3683 19.9965 15.181 19.9965C15.0302 19.9965 14.8809 19.8457 14.8809 19.6964V15.5638Z" fill="#00A551"/>
<path d="M16.459 16.1273C16.459 15.9765 16.6098 15.8271 16.7591 15.8271C16.9465 15.8271 17.0592 15.9779 17.0592 16.1273V19.1327C17.0592 19.32 16.9465 19.4328 16.7591 19.4328C16.6083 19.4328 16.459 19.32 16.459 19.1327V16.1273Z" fill="#00A551"/>
<path d="M18.0371 15.7513C18.0371 15.6005 18.1879 15.4512 18.3372 15.4512C18.5246 15.4512 18.6373 15.602 18.6373 15.7513V19.5091C18.6373 19.6965 18.5246 19.8092 18.3372 19.8092C18.1864 19.8092 18.0371 19.6965 18.0371 19.5091V15.7513Z" fill="#00A551"/>
<path d="M19.502 16.8782C19.502 16.6908 19.6527 16.5781 19.8021 16.5781C19.9894 16.5781 20.1022 16.6908 20.1022 16.8782V18.4183C20.1022 18.569 19.9894 18.7184 19.8021 18.7184C19.6513 18.7184 19.502 18.5676 19.502 18.4183V16.8782Z" fill="#00A551"/>
<path d="M13.377 16.1273C13.377 15.9765 13.5277 15.8271 13.6771 15.8271C13.8644 15.8271 13.9772 15.9779 13.9772 16.1273V19.1327C13.9772 19.32 13.8644 19.4328 13.6771 19.4328C13.5263 19.4328 13.377 19.32 13.377 19.1327V16.1273Z" fill="#00A551"/>
<path d="M11.7988 15.7513C11.7988 15.6005 11.9496 15.4512 12.0989 15.4512C12.2863 15.4512 12.399 15.602 12.399 15.7513V19.5091C12.399 19.6965 12.2863 19.8092 12.0989 19.8092C11.9481 19.8092 11.7988 19.6965 11.7988 19.5091V15.7513Z" fill="#00A551"/>
<path d="M10.334 16.8782C10.334 16.6908 10.4848 16.5781 10.6341 16.5781C10.8215 16.5781 10.9342 16.6908 10.9342 16.8782V18.4183C10.9342 18.569 10.8215 18.7184 10.6341 18.7184C10.4833 18.7184 10.334 18.5676 10.334 18.4183V16.8782Z" fill="#00A551"/>
<defs>
<linearGradient id="paint0_linear_19081_103693" x1="21.9867" y1="14.0131" x2="21.9867" y2="14.4365" gradientUnits="userSpaceOnUse">
<stop stop-color="#F1F4F7"/>
<stop offset="1" stop-color="#D8E2EB"/>
</linearGradient>
<linearGradient id="paint1_linear_19081_103693" x1="21.9867" y1="15.4205" x2="21.9867" y2="15.8437" gradientUnits="userSpaceOnUse">
<stop stop-color="#F1F4F7"/>
<stop offset="1" stop-color="#D8E2EB"/>
</linearGradient>
<linearGradient id="paint2_linear_19081_103693" x1="21.9867" y1="16.8276" x2="21.9867" y2="17.251" gradientUnits="userSpaceOnUse">
<stop stop-color="#F1F4F7"/>
<stop offset="1" stop-color="#D8E2EB"/>
</linearGradient>
<linearGradient id="paint3_linear_19081_103693" x1="21.9975" y1="18.2332" x2="21.9975" y2="18.6567" gradientUnits="userSpaceOnUse">
<stop stop-color="#F1F4F7"/>
<stop offset="1" stop-color="#D8E2EB"/>
</linearGradient>
<linearGradient id="paint4_linear_19081_103693" x1="21.9975" y1="19.6406" x2="21.9975" y2="20.0639" gradientUnits="userSpaceOnUse">
<stop stop-color="#F1F4F7"/>
<stop offset="1" stop-color="#D8E2EB"/>
</linearGradient>
</defs>
</svg>
