<svg width="24" height="24" viewBox="0 0 24 24" fill="none" xmlns="http://www.w3.org/2000/svg">
<path d="M12.0009 2C10.1926 2 8.45835 2.71834 7.1797 3.997C5.90104 5.27566 5.1827 7.00989 5.1827 8.81818V14.1364L3.6736 16.4091C3.49272 16.688 3.39013 17.0104 3.37655 17.3425C3.36297 17.6746 3.43891 18.0043 3.59642 18.297C3.75393 18.5897 3.98723 18.8347 4.27189 19.0064C4.55655 19.178 4.88212 19.27 5.21451 19.2727H18.7872C19.1218 19.2716 19.4498 19.18 19.7365 19.0077C20.0233 18.8353 20.258 18.5886 20.416 18.2937C20.5739 17.9988 20.6491 17.6667 20.6337 17.3325C20.6182 16.9983 20.5126 16.6745 20.3282 16.3955L18.8191 14.1364V8.81818C18.8191 7.00989 18.1007 5.27566 16.8221 3.997C15.5434 2.71834 13.8092 2 12.0009 2Z" fill="white"/>
<path d="M12.0008 21.9998C12.5643 21.9992 13.1137 21.824 13.5735 21.4985C14.0334 21.1729 14.3812 20.7129 14.569 20.1816H9.43262C9.62043 20.7129 9.96818 21.1729 10.4281 21.4985C10.8879 21.824 11.4373 21.9992 12.0008 21.9998Z" fill="white"/>
</svg>
