<svg width="24" height="24" viewBox="0 0 24 24" fill="none" xmlns="http://www.w3.org/2000/svg">
<path d="M1.35742 11.998C1.35913 11.6792 1.42766 11.3643 1.55859 11.0737C1.68951 10.783 1.87992 10.5231 2.11753 10.3105V15.2056C1.87992 14.9931 1.68951 14.7331 1.55859 14.4425C1.42766 14.1518 1.35913 13.837 1.35742 13.5182V11.998ZM21.8803 10.3105V15.2056C22.1179 14.9931 22.3083 14.7331 22.4393 14.4425C22.5702 14.1518 22.6387 13.837 22.6404 13.5182V11.998C22.6387 11.6792 22.5702 11.3643 22.4393 11.0737C22.3083 10.783 22.1179 10.5231 21.8803 10.3105ZM20.3601 8.57749V16.9387C20.3601 17.5434 20.1199 18.1235 19.6922 18.5511C19.2646 18.9787 18.6846 19.219 18.0798 19.219H10.6079L8.59364 21.5753C8.45175 21.7412 8.27579 21.8746 8.07774 21.9664C7.87968 22.0582 7.66418 22.1063 7.44588 22.1074C7.26386 22.1085 7.0833 22.0749 6.9138 22.0086C6.62263 21.9016 6.37116 21.708 6.19317 21.4539C6.01518 21.1999 5.91918 20.8974 5.91806 20.5872V19.219C5.31329 19.219 4.73328 18.9787 4.30563 18.5511C3.87799 18.1235 3.63774 17.5434 3.63774 16.9387V8.57749C3.63774 7.97271 3.87799 7.3927 4.30563 6.96506C4.73328 6.53742 5.31329 6.29717 5.91806 6.29717H11.2388V4.94418C10.949 4.77685 10.7225 4.51857 10.5944 4.2094C10.4664 3.90022 10.4439 3.55742 10.5305 3.23418C10.6171 2.91093 10.808 2.62529 11.0735 2.42157C11.339 2.21785 11.6643 2.10742 11.9989 2.10742C12.3336 2.10742 12.6589 2.21785 12.9244 2.42157C13.1899 2.62529 13.3807 2.91093 13.4673 3.23418C13.5539 3.55742 13.5315 3.90022 13.4034 4.2094C13.2753 4.51857 13.0488 4.77685 12.759 4.94418V6.29717H18.0798C18.6846 6.29717 19.2646 6.53742 19.6922 6.96506C20.1199 7.3927 20.3601 7.97271 20.3601 8.57749ZM9.7186 12.378C9.9441 12.378 10.1645 12.3112 10.352 12.1859C10.5395 12.0606 10.6857 11.8825 10.772 11.6742C10.8583 11.4658 10.8808 11.2366 10.8369 11.0154C10.7929 10.7943 10.6843 10.5911 10.5248 10.4317C10.3654 10.2722 10.1622 10.1636 9.94103 10.1196C9.71986 10.0756 9.49062 10.0982 9.28228 10.1845C9.07394 10.2708 8.89587 10.4169 8.77059 10.6044C8.64531 10.7919 8.57844 11.0124 8.57844 11.2379C8.57844 11.5403 8.69856 11.8303 8.91238 12.0441C9.12621 12.2579 9.41621 12.378 9.7186 12.378ZM15.1306 14.1871C14.9881 14.0455 14.7955 13.966 14.5947 13.966C14.3939 13.966 14.2012 14.0455 14.0588 14.1871C13.5043 14.7177 12.7664 15.0138 11.9989 15.0138C11.2314 15.0138 10.4936 14.7177 9.93903 14.1871C9.79362 14.0626 9.60658 13.9975 9.41528 14.0049C9.22398 14.0123 9.04251 14.0916 8.90714 14.2269C8.77177 14.3623 8.69246 14.5438 8.68507 14.7351C8.67768 14.9264 8.74275 15.1134 8.86728 15.2588C9.2782 15.6707 9.76632 15.9974 10.3037 16.2204C10.8411 16.4433 11.4171 16.5581 11.9989 16.5581C12.5807 16.5581 13.1568 16.4433 13.6941 16.2204C14.2315 15.9974 14.7196 15.6707 15.1306 15.2588C15.2721 15.1164 15.3516 14.9238 15.3516 14.723C15.3516 14.5221 15.2721 14.3295 15.1306 14.1871ZM15.4194 11.2379C15.4194 11.0124 15.3525 10.7919 15.2273 10.6044C15.102 10.4169 14.9239 10.2708 14.7156 10.1845C14.5072 10.0982 14.278 10.0756 14.0568 10.1196C13.8356 10.1636 13.6325 10.2722 13.473 10.4317C13.3136 10.5911 13.205 10.7943 13.161 11.0154C13.117 11.2366 13.1396 11.4658 13.2259 11.6742C13.3122 11.8825 13.4583 12.0606 13.6458 12.1859C13.8333 12.3112 14.0537 12.378 14.2792 12.378C14.5816 12.378 14.8716 12.2579 15.0855 12.0441C15.2993 11.8303 15.4194 11.5403 15.4194 11.2379Z" fill="#13F584"/>
</svg>
