<svg width="22" height="20" viewBox="0 0 22 20" fill="none" xmlns="http://www.w3.org/2000/svg">
<path d="M0 9.8908C0.00171148 9.57202 0.0702407 9.25715 0.201165 8.9665C0.332089 8.67585 0.5225 8.41587 0.760107 8.20336V13.0984C0.5225 12.8859 0.332089 12.626 0.201165 12.3353C0.0702407 12.0447 0.00171148 11.7298 0 11.411V9.8908ZM20.5229 8.20336V13.0984C20.7605 12.8859 20.9509 12.626 21.0818 12.3353C21.2128 12.0447 21.2813 11.7298 21.283 11.411V9.8908C21.2813 9.57202 21.2128 9.25715 21.0818 8.9665C20.9509 8.67585 20.7605 8.41587 20.5229 8.20336ZM19.0027 6.47031V14.8315C19.0027 15.4363 18.7624 16.0163 18.3348 16.4439C17.9071 16.8716 17.3271 17.1118 16.7224 17.1118H9.2505L7.23622 19.4681C7.09433 19.634 6.91837 19.7674 6.72031 19.8592C6.52226 19.9511 6.30676 19.9991 6.08846 20.0002C5.90644 20.0013 5.72588 19.9678 5.55638 19.9014C5.26521 19.7944 5.01374 19.6008 4.83575 19.3468C4.65776 19.0927 4.56176 18.7902 4.56064 18.48V17.1118C3.95586 17.1118 3.37585 16.8716 2.94821 16.4439C2.52057 16.0163 2.28032 15.4363 2.28032 14.8315V6.47031C2.28032 5.86554 2.52057 5.28553 2.94821 4.85788C3.37585 4.43024 3.95586 4.18999 4.56064 4.18999H9.88139V2.837C9.59157 2.66968 9.36507 2.4114 9.237 2.10222C9.10894 1.79304 9.08647 1.45025 9.17308 1.127C9.2597 0.80375 9.45055 0.518114 9.71605 0.314391C9.98155 0.110669 10.3068 0.000244141 10.6415 0.000244141C10.9761 0.000244141 11.3014 0.110669 11.5669 0.314391C11.8324 0.518114 12.0233 0.80375 12.1099 1.127C12.1965 1.45025 12.1741 1.79304 12.046 2.10222C11.9179 2.4114 11.6914 2.66968 11.4016 2.837V4.18999H16.7224C17.3271 4.18999 17.9071 4.43024 18.3348 4.85788C18.7624 5.28553 19.0027 5.86554 19.0027 6.47031ZM8.36118 10.2709C8.58668 10.2709 8.80712 10.204 8.99462 10.0787C9.18211 9.95341 9.32825 9.77535 9.41455 9.56701C9.50084 9.35867 9.52342 9.12942 9.47943 8.90825C9.43544 8.68709 9.32685 8.48393 9.16739 8.32447C9.00794 8.16502 8.80478 8.05643 8.58361 8.01244C8.36244 7.96844 8.13319 7.99102 7.92486 8.07732C7.71652 8.16361 7.53845 8.30975 7.41317 8.49725C7.28789 8.68475 7.22102 8.90519 7.22102 9.13069C7.22102 9.43308 7.34114 9.72308 7.55496 9.9369C7.76878 10.1507 8.05879 10.2709 8.36118 10.2709ZM13.7731 12.0799C13.6307 11.9383 13.4381 11.8589 13.2373 11.8589C13.0365 11.8589 12.8438 11.9383 12.7014 12.0799C12.1469 12.6105 11.409 12.9066 10.6415 12.9066C9.87402 12.9066 9.13614 12.6105 8.58161 12.0799C8.4362 11.9554 8.24916 11.8903 8.05785 11.8977C7.86655 11.9051 7.68509 11.9844 7.54972 12.1198C7.41434 12.2551 7.33504 12.4366 7.32765 12.6279C7.32026 12.8192 7.38533 13.0062 7.50986 13.1517C7.92078 13.5635 8.4089 13.8903 8.94627 14.1132C9.48364 14.3361 10.0597 14.4509 10.6415 14.4509C11.2233 14.4509 11.7994 14.3361 12.3367 14.1132C12.8741 13.8903 13.3622 13.5635 13.7731 13.1517C13.9147 13.0092 13.9942 12.8166 13.9942 12.6158C13.9942 12.415 13.9147 12.2223 13.7731 12.0799ZM14.062 9.13069C14.062 8.90519 13.9951 8.68475 13.8698 8.49725C13.7445 8.30975 13.5665 8.16361 13.3581 8.07732C13.1498 7.99102 12.9206 7.96844 12.6994 8.01244C12.4782 8.05643 12.2751 8.16502 12.1156 8.32447C11.9562 8.48393 11.8476 8.68709 11.8036 8.90825C11.7596 9.12942 11.7822 9.35867 11.8684 9.56701C11.9547 9.77535 12.1009 9.95341 12.2884 10.0787C12.4759 10.204 12.6963 10.2709 12.9218 10.2709C13.2242 10.2709 13.5142 10.1507 13.728 9.9369C13.9419 9.72308 14.062 9.43308 14.062 9.13069Z" fill="white"/>
</svg>
