<svg width="24" height="24" viewBox="0 0 24 24" fill="none" xmlns="http://www.w3.org/2000/svg">
<path d="M17.1429 6.64286H17V2.71429C17 2.52485 16.9247 2.34316 16.7908 2.20921C16.6568 2.07525 16.4752 2 16.2857 2C16.0963 2 15.9146 2.07525 15.7806 2.20921C15.6467 2.34316 15.5714 2.52485 15.5714 2.71429V6.64286H6.85714C6.32918 6.64284 5.82262 6.85159 5.44796 7.22358C5.07329 7.59557 4.86091 8.10062 4.85714 8.62857V17.55C4.86091 18.078 5.07329 18.583 5.44796 18.955C5.82262 19.327 6.32918 19.5357 6.85714 19.5357H8.07143V20.65C8.07088 20.9067 8.14392 21.1582 8.28191 21.3747C8.4199 21.5912 8.61705 21.7636 8.85 21.8714C9.03394 21.9552 9.23358 21.9991 9.43571 22C9.74947 21.9992 10.0529 21.8879 10.2929 21.6857L12.8786 19.5429H17.1643C17.6898 19.5372 18.1919 19.325 18.5622 18.9521C18.9324 18.5792 19.141 18.0755 19.1429 17.55V8.62857C19.1391 8.10062 18.9267 7.59557 18.552 7.22358C18.1774 6.85159 17.6708 6.64284 17.1429 6.64286ZM7.71429 14.7571C7.71429 14.5677 7.78954 14.386 7.9235 14.2521C8.05745 14.1181 8.23913 14.0429 8.42857 14.0429H13.4286C13.618 14.0429 13.7997 14.1181 13.9336 14.2521C14.0676 14.386 14.1429 14.5677 14.1429 14.7571C14.1429 14.9466 14.0676 15.1283 13.9336 15.2622C13.7997 15.3962 13.618 15.4714 13.4286 15.4714H8.42857C8.23913 15.4714 8.05745 15.3962 7.9235 15.2622C7.78954 15.1283 7.71429 14.9466 7.71429 14.7571ZM16.2857 11.6643C16.2857 11.7581 16.2672 11.851 16.2313 11.9376C16.1954 12.0243 16.1428 12.103 16.0765 12.1694C16.0102 12.2357 15.9314 12.2883 15.8448 12.3242C15.7581 12.3601 15.6652 12.3786 15.5714 12.3786H8.42857C8.23913 12.3786 8.05745 12.3033 7.9235 12.1694C7.78954 12.0354 7.71429 11.8537 7.71429 11.6643C7.71429 11.4748 7.78954 11.2932 7.9235 11.1592C8.05745 11.0253 8.23913 10.95 8.42857 10.95H15.5714C15.7609 10.95 15.9426 11.0253 16.0765 11.1592C16.2105 11.2932 16.2857 11.4748 16.2857 11.6643ZM3.42857 15.8643C3.04969 15.8643 2.68633 15.7138 2.41842 15.4459C2.15051 15.178 2 14.8146 2 14.4357V11.2214C2 10.8425 2.15051 10.4792 2.41842 10.2113C2.68633 9.94337 3.04969 9.79286 3.42857 9.79286V15.8643ZM20.5714 9.79286V15.8643C20.9503 15.8643 21.3137 15.7138 21.5816 15.4459C21.8495 15.178 22 14.8146 22 14.4357V11.2214C22 10.8425 21.8495 10.4792 21.5816 10.2113C21.3137 9.94337 20.9503 9.79286 20.5714 9.79286Z" fill="#13F584"/>
</svg>
