<svg width="20" height="20" viewBox="0 0 20 20" fill="none" xmlns="http://www.w3.org/2000/svg">
<path d="M15.1429 4.64286H15V0.714286C15 0.524845 14.9247 0.343164 14.7908 0.209209C14.6568 0.0752549 14.4752 0 14.2857 0C14.0963 0 13.9146 0.0752549 13.7806 0.209209C13.6467 0.343164 13.5714 0.524845 13.5714 0.714286V4.64286H4.85714C4.32918 4.64284 3.82262 4.85159 3.44796 5.22358C3.07329 5.59557 2.86091 6.10062 2.85714 6.62857V15.55C2.86091 16.078 3.07329 16.583 3.44796 16.955C3.82262 17.327 4.32918 17.5357 4.85714 17.5357H6.07143V18.65C6.07088 18.9067 6.14392 19.1582 6.28191 19.3747C6.4199 19.5912 6.61705 19.7636 6.85 19.8714C7.03394 19.9552 7.23358 19.9991 7.43571 20C7.74947 19.9992 8.05292 19.8879 8.29286 19.6857L10.8786 17.5429H15.1643C15.6898 17.5372 16.1919 17.325 16.5622 16.9521C16.9324 16.5792 17.141 16.0755 17.1429 15.55V6.62857C17.1391 6.10062 16.9267 5.59557 16.552 5.22358C16.1774 4.85159 15.6708 4.64284 15.1429 4.64286ZM5.71429 12.7571C5.71429 12.5677 5.78954 12.386 5.9235 12.2521C6.05745 12.1181 6.23913 12.0429 6.42857 12.0429H11.4286C11.618 12.0429 11.7997 12.1181 11.9336 12.2521C12.0676 12.386 12.1429 12.5677 12.1429 12.7571C12.1429 12.9466 12.0676 13.1283 11.9336 13.2622C11.7997 13.3962 11.618 13.4714 11.4286 13.4714H6.42857C6.23913 13.4714 6.05745 13.3962 5.9235 13.2622C5.78954 13.1283 5.71429 12.9466 5.71429 12.7571ZM14.2857 9.66429C14.2857 9.75809 14.2672 9.85097 14.2313 9.93763C14.1954 10.0243 14.1428 10.103 14.0765 10.1694C14.0102 10.2357 13.9314 10.2883 13.8448 10.3242C13.7581 10.3601 13.6652 10.3786 13.5714 10.3786H6.42857C6.23913 10.3786 6.05745 10.3033 5.9235 10.1694C5.78954 10.0354 5.71429 9.85373 5.71429 9.66429C5.71429 9.47484 5.78954 9.29316 5.9235 9.15921C6.05745 9.02526 6.23913 8.95 6.42857 8.95H13.5714C13.7609 8.95 13.9426 9.02526 14.0765 9.15921C14.2105 9.29316 14.2857 9.47484 14.2857 9.66429ZM1.42857 13.8643C1.04969 13.8643 0.686328 13.7138 0.418419 13.4459C0.15051 13.178 0 12.8146 0 12.4357V9.22143C0 8.84255 0.15051 8.47919 0.418419 8.21128C0.686328 7.94337 1.04969 7.79286 1.42857 7.79286V13.8643ZM18.5714 7.79286V13.8643C18.9503 13.8643 19.3137 13.7138 19.5816 13.4459C19.8495 13.178 20 12.8146 20 12.4357V9.22143C20 8.84255 19.8495 8.47919 19.5816 8.21128C19.3137 7.94337 18.9503 7.79286 18.5714 7.79286Z" fill="white"/>
</svg>
