<svg width="36" height="36" viewBox="0 0 36 36" fill="none" xmlns="http://www.w3.org/2000/svg">
<rect width="36" height="36" rx="18" fill="white" fill-opacity="0.04"/>
<path d="M12.2572 21.2067L12.0055 23.2907C11.9937 23.3794 12.001 23.4696 12.027 23.5553C12.0531 23.6409 12.0971 23.72 12.1563 23.7872C12.2154 23.8543 12.2883 23.9081 12.37 23.9447C12.4516 23.9814 12.5402 24.0001 12.6297 23.9996C12.6564 23.9997 12.683 23.998 12.7094 23.9946L14.7934 23.7429C15.2315 23.6874 15.6386 23.4874 15.9503 23.1747L21.3502 17.7748C21.3971 17.7279 21.4234 17.6643 21.4234 17.5981C21.4234 17.5318 21.3971 17.4682 21.3502 17.4213L18.5798 14.6484C18.5329 14.6015 18.4693 14.5752 18.403 14.5752C18.3367 14.5752 18.2732 14.6015 18.2263 14.6484L12.8254 20.0497C12.5127 20.3615 12.3127 20.7686 12.2572 21.2067Z" fill="white"/>
<path d="M23.6201 13.6722L22.3276 12.3798C22.2073 12.2594 22.0644 12.1639 21.9072 12.0987C21.7499 12.0335 21.5814 12 21.4111 12C21.2409 12 21.0724 12.0335 20.9151 12.0987C20.7579 12.1639 20.615 12.2594 20.4947 12.3798L19.2812 13.5932C19.2343 13.6401 19.208 13.7037 19.208 13.77C19.208 13.8363 19.2343 13.8998 19.2812 13.9467L22.0531 16.7187C22.1 16.7655 22.1636 16.7918 22.2299 16.7918C22.2962 16.7918 22.3597 16.7655 22.4066 16.7187L23.6201 15.5052C23.7405 15.3849 23.836 15.242 23.9012 15.0847C23.9663 14.9275 23.9999 14.7589 23.9999 14.5887C23.9999 14.4185 23.9663 14.2499 23.9012 14.0927C23.836 13.9354 23.7405 13.7926 23.6201 13.6722Z" fill="white"/>
<path d="M23.9998 23.4997C23.9998 23.3671 23.9471 23.24 23.8534 23.1462C23.7596 23.0524 23.6324 22.9998 23.4998 22.9998H17.75C17.6174 22.9998 17.4902 23.0524 17.3964 23.1462C17.3027 23.24 17.25 23.3671 17.25 23.4997C17.25 23.6323 17.3027 23.7595 17.3964 23.8533C17.4902 23.9471 17.6174 23.9997 17.75 23.9997H23.4998C23.6324 23.9997 23.7596 23.9471 23.8534 23.8533C23.9471 23.7595 23.9998 23.6323 23.9998 23.4997Z" fill="white"/>
</svg>
