<svg width="1000" height="600" viewBox="0 0 1000 600" fill="none" xmlns="http://www.w3.org/2000/svg">
<g opacity="0.8" clip-path="url(#clip0_19420_351172)">
<g filter="url(#filter0_f_19420_351172)">
<mask id="mask0_19420_351172" style="mask-type:alpha" maskUnits="userSpaceOnUse" x="-346" y="-994" width="2028" height="1753">
<path d="M16.1383 617.868L686.477 -271.557L921.935 -131.277L251.597 758.149L16.1383 617.868Z" fill="url(#paint0_linear_19420_351172)"/>
<path d="M4.89098 617.868L675.229 -271.557L910.687 -131.277L240.349 758.149L4.89098 617.868Z" fill="url(#paint1_linear_19420_351172)"/>
<path opacity="0.9" d="M141.041 481.99L811.379 -407.435L1046.84 -267.154L376.499 622.271L141.041 481.99Z" fill="url(#paint2_linear_19420_351172)"/>
<path opacity="0.8" d="M195.387 424.805L865.725 -464.621L1101.18 -324.34L430.845 565.086L195.387 424.805Z" fill="url(#paint3_linear_19420_351172)"/>
<mask id="mask1_19420_351172" style="mask-type:luminance" maskUnits="userSpaceOnUse" x="-94" y="0" width="1126" height="600">
<path d="M1031.46 600L-93.2766 600L-93.2766 0L1031.46 -9.83272e-05L1031.46 600Z" fill="white"/>
</mask>
<g mask="url(#mask1_19420_351172)">
<path d="M-425.513 272.736L244.825 -616.689L480.284 -476.408L-190.055 413.018L-425.513 272.736Z" fill="url(#paint4_radial_19420_351172)"/>
</g>
<mask id="mask2_19420_351172" style="mask-type:luminance" maskUnits="userSpaceOnUse" x="-94" y="0" width="1126" height="600">
<path d="M1031.46 600L-93.2766 600L-93.2766 0L1031.46 -9.83272e-05L1031.46 600Z" fill="white"/>
</mask>
<g mask="url(#mask2_19420_351172)">
<path d="M155.27 575.216C154.621 574.825 250.34 447.687 369.067 291.242C487.794 134.797 584.569 8.28884 585.219 8.67684C585.867 9.06783 490.147 136.208 371.421 292.654C252.694 449.098 155.92 575.606 155.27 575.216Z" fill="url(#paint5_radial_19420_351172)"/>
</g>
<mask id="mask3_19420_351172" style="mask-type:luminance" maskUnits="userSpaceOnUse" x="-94" y="0" width="1126" height="600">
<path d="M1031.46 600L-93.2766 600L-93.2766 0L1031.46 -9.83272e-05L1031.46 600Z" fill="white"/>
</mask>
<g mask="url(#mask3_19420_351172)">
<path d="M992.903 803.513C991.213 802.496 1150.05 590.574 1347.67 330.164C1545.3 69.7559 1706.88 -140.525 1708.57 -139.512C1710.26 -138.494 1551.42 73.4289 1353.8 333.838C1156.17 594.246 994.593 804.527 992.903 803.513Z" fill="url(#paint6_radial_19420_351172)"/>
</g>
<path d="M83.0104 441.014C81.321 439.997 240.155 228.074 437.78 -32.3341C635.406 -292.742 796.985 -503.023 798.675 -502.012C800.364 -500.994 641.528 -289.069 443.903 -28.6601C246.279 231.749 84.7009 442.028 83.0104 441.014Z" fill="url(#paint7_radial_19420_351172)"/>
<path d="M233.25 451.837C229.392 449.52 383.845 239.998 578.233 -16.1441C772.622 -272.286 933.337 -478.06 937.192 -475.746C941.048 -473.428 786.59 -263.906 592.205 -7.76218C397.814 248.377 237.103 454.15 233.25 451.837Z" fill="url(#paint8_radial_19420_351172)"/>
<path d="M97.7148 541.026C96.4979 540.295 217.527 378.923 368.04 180.593C518.554 -17.733 641.559 -177.925 642.774 -177.194C643.991 -176.461 522.962 -15.09 372.447 183.24C221.934 381.568 98.9318 541.758 97.7148 541.026Z" fill="url(#paint9_radial_19420_351172)"/>
<path d="M-6.34643 691.109C-7.56339 690.379 113.466 529.006 263.979 330.676C414.492 132.35 537.497 -27.84 538.711 -27.109C539.928 -26.377 418.899 134.994 268.384 333.324C117.872 531.651 -5.12947 691.841 -6.34643 691.109Z" fill="url(#paint10_radial_19420_351172)"/>
<path d="M-10.4813 22.9279C-39.5027 5.53889 97.0161 -219.75 294.444 -480.277C491.874 -740.804 675.447 -937.91 704.468 -920.525C733.49 -903.136 596.966 -677.845 399.539 -417.32C202.111 -156.793 18.5402 40.3119 -10.4813 22.9279Z" fill="url(#paint11_radial_19420_351172)"/>
<path d="M-6.35627 617.868L663.982 -271.557L899.44 -131.277L229.102 758.149L-6.35627 617.868Z" fill="url(#paint12_linear_19420_351172)"/>
<path d="M-17.6042 617.868L652.734 -271.557L888.192 -131.277L217.854 758.149L-17.6042 617.868Z" fill="url(#paint13_linear_19420_351172)"/>
<path d="M120.483 590.415C119.268 589.685 240.295 428.312 390.808 229.982C541.322 31.656 664.327 -128.536 665.544 -127.805C666.758 -127.073 545.732 34.299 395.217 232.629C244.704 430.957 121.702 591.146 120.483 590.415Z" fill="url(#paint14_radial_19420_351172)"/>
<path d="M207.754 466.528C206.537 465.798 327.566 304.426 478.079 106.095C628.593 -92.231 751.597 -252.423 752.813 -251.692C754.03 -250.96 633.001 -89.588 482.485 108.742C331.974 307.07 208.971 467.26 207.754 466.528Z" fill="url(#paint15_radial_19420_351172)"/>
<path d="M608.202 463.444L1278.54 -425.98L1514 -285.701L843.66 603.726L608.202 463.444Z" fill="url(#paint16_linear_19420_351172)"/>
<path d="M596.955 463.444L1267.29 -425.98L1502.75 -285.701L832.413 603.726L596.955 463.444Z" fill="url(#paint17_linear_19420_351172)"/>
<path d="M585.707 463.444L1256.05 -425.98L1491.5 -285.701L821.166 603.726L585.707 463.444Z" fill="url(#paint18_linear_19420_351172)"/>
<path opacity="0.9" d="M721.857 327.566L1392.2 -561.859L1627.65 -421.578L957.315 467.848L721.857 327.566Z" fill="url(#paint19_linear_19420_351172)"/>
<path opacity="0.8" d="M776.205 270.381L1446.54 -619.045L1682 -478.764L1011.66 410.662L776.205 270.381Z" fill="url(#paint20_linear_19420_351172)"/>
<path d="M663.827 286.59C662.137 285.574 820.971 73.6511 1018.6 -186.758C1216.22 -447.167 1377.8 -657.447 1379.49 -656.436C1381.18 -655.418 1222.34 -443.493 1024.72 -183.084C827.095 77.3241 665.517 287.605 663.827 286.59Z" fill="url(#paint21_radial_19420_351172)"/>
<path d="M814.069 297.414C810.211 295.096 964.663 85.5741 1159.05 -170.569C1353.44 -426.712 1514.16 -632.485 1518.01 -630.171C1521.87 -627.853 1367.41 -418.331 1173.02 -162.187C978.631 93.953 817.921 299.727 814.069 297.414Z" fill="url(#paint22_radial_19420_351172)"/>
<path d="M678.532 386.602C677.316 385.872 798.344 224.5 948.856 26.17C1099.37 -172.156 1222.37 -332.348 1223.59 -331.617C1224.81 -330.885 1103.78 -169.513 953.264 28.817C802.752 227.145 679.75 387.334 678.532 386.602Z" fill="url(#paint23_radial_19420_351172)"/>
<path d="M574.469 536.686C573.253 535.956 694.281 374.583 844.794 176.254C995.308 -22.0738 1118.31 -182.264 1119.53 -181.533C1120.75 -180.801 999.717 -19.4288 849.202 178.901C698.69 377.227 575.687 537.417 574.469 536.686Z" fill="url(#paint24_radial_19420_351172)"/>
<path d="M574.46 463.444L1244.8 -425.98L1480.26 -285.701L809.918 603.726L574.46 463.444Z" fill="url(#paint25_linear_19420_351172)"/>
<path d="M563.213 463.444L1233.55 -425.98L1469.01 -285.701L798.671 603.726L563.213 463.444Z" fill="url(#paint26_linear_19420_351172)"/>
<path d="M701.299 435.991C700.083 435.261 821.111 273.889 971.624 75.5581C1122.14 -122.768 1245.14 -282.96 1246.36 -282.229C1247.57 -281.497 1126.55 -120.125 976.032 78.2051C825.519 276.533 702.517 436.723 701.299 435.991Z" fill="url(#paint27_radial_19420_351172)"/>
<path d="M788.572 312.104C787.356 311.374 908.384 150.002 1058.9 -48.3288C1209.41 -246.655 1332.42 -406.847 1333.63 -406.116C1334.85 -405.384 1213.82 -244.013 1063.3 -45.6818C912.792 152.647 789.79 312.836 788.572 312.104Z" fill="url(#paint28_radial_19420_351172)"/>
<path d="M323.529 512.802L993.867 -376.623L1229.33 -236.344L558.987 653.083L323.529 512.802Z" fill="url(#paint29_linear_19420_351172)"/>
<path d="M312.282 512.802L982.62 -376.623L1218.08 -236.344L547.74 653.083L312.282 512.802Z" fill="url(#paint30_linear_19420_351172)"/>
<path d="M301.035 512.802L971.373 -376.623L1206.83 -236.344L536.493 653.083L301.035 512.802Z" fill="url(#paint31_linear_19420_351172)"/>
<path opacity="0.9" d="M437.185 376.924L1107.52 -512.502L1342.98 -372.221L672.642 517.205L437.185 376.924Z" fill="url(#paint32_linear_19420_351172)"/>
<path opacity="0.8" d="M491.531 319.738L1161.87 -569.688L1397.33 -429.406L726.989 460.02L491.531 319.738Z" fill="url(#paint33_linear_19420_351172)"/>
<path d="M379.153 335.947C377.464 334.93 536.298 123.008 733.923 -137.401C931.549 -397.81 1093.13 -608.09 1094.82 -607.079C1096.51 -606.061 937.671 -394.136 740.047 -133.727C542.422 126.682 380.845 336.962 379.153 335.947Z" fill="url(#paint34_radial_19420_351172)"/>
<path d="M529.394 346.77C525.536 344.453 679.988 134.931 874.378 -121.211C1068.77 -377.354 1229.48 -583.127 1233.34 -580.813C1237.19 -578.495 1082.73 -368.973 888.348 -112.829C693.957 143.31 533.247 349.084 529.394 346.77Z" fill="url(#paint35_radial_19420_351172)"/>
<path d="M393.857 435.96C392.641 435.23 513.669 273.857 664.182 75.5269C814.696 -122.799 937.701 -282.99 938.917 -282.26C940.133 -281.527 819.105 -120.156 668.59 78.1739C518.078 276.502 395.075 436.691 393.857 435.96Z" fill="url(#paint36_radial_19420_351172)"/>
<path d="M289.796 586.043C288.581 585.312 409.608 423.94 560.121 225.611C710.635 27.2829 833.641 -132.907 834.856 -132.176C836.072 -131.444 715.044 29.9268 564.529 228.258C414.016 426.585 291.014 586.774 289.796 586.043Z" fill="url(#paint37_radial_19420_351172)"/>
<path d="M289.787 512.802L960.126 -376.623L1195.58 -236.344L525.245 653.083L289.787 512.802Z" fill="url(#paint38_linear_19420_351172)"/>
<path d="M278.539 512.802L948.878 -376.623L1184.34 -236.344L513.998 653.083L278.539 512.802Z" fill="url(#paint39_linear_19420_351172)"/>
<path d="M416.625 485.349C415.41 484.619 536.438 323.246 686.95 124.916C837.464 -73.41 960.469 -233.602 961.685 -232.871C962.901 -232.139 841.873 -70.767 691.358 127.563C540.846 325.891 417.845 486.08 416.625 485.349Z" fill="url(#paint40_radial_19420_351172)"/>
<path d="M503.897 361.462C502.682 360.732 623.709 199.36 774.222 1.02906C924.736 -197.297 1047.74 -357.489 1048.96 -356.758C1050.17 -356.026 929.145 -194.654 778.63 3.67609C628.118 202.004 505.115 362.193 503.897 361.462Z" fill="url(#paint41_radial_19420_351172)"/>
<path d="M-43.6783 498.722L632.731 -387.063L398.239 -528.615L-278.174 357.17L-43.6783 498.722Z" fill="url(#paint42_linear_19420_351172)"/>
<path d="M-39.4653 507.993L636.944 -377.791L402.452 -519.344L-273.96 366.441L-39.4653 507.993Z" fill="url(#paint43_linear_19420_351172)"/>
<path d="M-35.2519 517.265L641.158 -368.519L406.665 -510.07L-269.746 375.714L-35.2519 517.265Z" fill="url(#paint44_linear_19420_351172)"/>
<path opacity="0.9" d="M55.4441 354.128L731.854 -531.656L497.36 -673.209L-179.053 212.576L55.4441 354.128Z" fill="url(#paint45_linear_19420_351172)"/>
<path opacity="0.8" d="M94.7192 287.904L771.129 -597.879L536.636 -739.432L-139.775 146.353L94.7192 287.904Z" fill="url(#paint46_linear_19420_351172)"/>
<path d="M119.914 386.615C121.606 387.628 283.108 177.304 480.639 -83.16C678.169 -343.627 836.928 -555.597 835.24 -556.613C833.545 -557.623 672.044 -347.297 474.512 -86.832C276.981 173.631 118.222 385.602 119.914 386.615Z" fill="url(#paint47_radial_19420_351172)"/>
<path d="M52.346 266.818C56.2073 269.131 216.846 63.3181 411.14 -192.881C605.434 -449.08 759.816 -658.65 755.961 -660.963C752.098 -663.272 591.462 -457.455 397.164 -201.258C202.873 54.9411 48.4893 264.508 52.346 266.818Z" fill="url(#paint48_radial_19420_351172)"/>
<path d="M10.1077 411.959C11.3269 412.689 134.273 252.467 284.714 54.0939C435.153 -144.277 556.127 -305.685 554.909 -306.414C553.691 -307.142 430.744 -146.922 280.304 51.4529C129.864 249.824 8.89071 411.23 10.1077 411.959Z" fill="url(#paint49_radial_19420_351172)"/>
<path d="M-107.421 553.966C-106.204 554.695 16.743 394.473 167.185 196.102C317.624 -2.27103 438.598 -163.679 437.379 -164.408C436.16 -165.137 313.215 -4.91398 162.774 193.459C12.3318 391.829 -108.64 553.235 -107.421 553.966Z" fill="url(#paint50_radial_19420_351172)"/>
<path d="M-31.0384 526.537L645.371 -359.248L410.879 -500.799L-265.533 384.985L-31.0384 526.537Z" fill="url(#paint51_linear_19420_351172)"/>
<path d="M-26.825 535.809L649.585 -349.975L415.092 -491.527L-261.319 394.257L-26.825 535.809Z" fill="url(#paint52_linear_19420_351172)"/>
<path d="M-49.9251 411.691C-48.7059 412.42 74.2398 252.199 224.681 53.8258C375.12 -144.545 496.093 -305.953 494.875 -306.684C493.657 -307.411 370.71 -147.19 220.269 51.1849C69.8308 249.557 -51.1432 410.962 -49.9251 411.691Z" fill="url(#paint53_radial_19420_351172)"/>
<path d="M46.5773 293.34C47.7931 294.069 170.74 133.848 321.181 -64.525C471.62 -262.896 592.593 -424.304 591.376 -425.035C590.157 -425.762 467.211 -265.541 316.772 -67.166C166.33 131.205 45.3558 292.611 46.5773 293.34Z" fill="url(#paint54_radial_19420_351172)"/>
<path d="M38.8089 244.754L715.218 -641.031L480.726 -782.584L-195.687 103.201L38.8089 244.754Z" fill="url(#paint55_linear_19420_351172)"/>
<path d="M43.0224 254.025L719.432 -631.76L484.94 -773.313L-191.473 112.473L43.0224 254.025Z" fill="url(#paint56_linear_19420_351172)"/>
<path d="M47.2351 263.297L723.645 -622.488L489.153 -764.039L-187.26 121.746L47.2351 263.297Z" fill="url(#paint57_linear_19420_351172)"/>
<path opacity="0.9" d="M137.93 100.16L814.341 -785.625L579.848 -927.178L-96.5653 -41.3931L137.93 100.16Z" fill="url(#paint58_linear_19420_351172)"/>
<path opacity="0.8" d="M177.207 33.935L853.617 -851.848L619.122 -993.4L-57.2873 -107.615L177.207 33.935Z" fill="url(#paint59_linear_19420_351172)"/>
<path d="M202.401 132.647C204.094 133.661 365.596 -76.664 563.127 -337.128C760.657 -597.595 919.416 -809.566 917.728 -810.581C916.033 -811.591 754.531 -601.265 557 -340.8C359.469 -80.338 200.71 131.635 202.401 132.647Z" fill="url(#paint60_radial_19420_351172)"/>
<path d="M134.833 12.8501C138.694 15.1631 299.333 -190.65 493.627 -446.849C687.922 -703.048 842.303 -912.619 838.448 -914.931C834.585 -917.24 673.949 -711.423 479.651 -455.226C285.36 -199.027 130.977 10.5391 134.833 12.8501Z" fill="url(#paint61_radial_19420_351172)"/>
<path d="M92.5949 157.99C93.8141 158.72 216.759 -1.50204 367.202 -199.875C517.64 -398.246 638.615 -559.654 637.396 -560.383C636.177 -561.112 513.231 -400.891 362.792 -202.516C212.35 -4.14404 91.3779 157.262 92.5949 157.99Z" fill="url(#paint62_radial_19420_351172)"/>
<path d="M-24.9335 299.997C-23.7165 300.725 99.2291 140.504 249.672 -57.867C400.111 -256.24 521.085 -417.648 519.867 -418.377C518.647 -419.106 395.703 -258.883 245.261 -60.51C94.819 137.861 -26.1527 299.267 -24.9335 299.997Z" fill="url(#paint63_radial_19420_351172)"/>
<path d="M51.4487 272.568L727.858 -613.217L493.366 -754.768L-183.046 131.018L51.4487 272.568Z" fill="url(#paint64_linear_19420_351172)"/>
<path d="M55.6622 281.84L732.071 -603.943L497.58 -745.496L-178.832 140.289L55.6622 281.84Z" fill="url(#paint65_linear_19420_351172)"/>
<path d="M32.5621 157.723C33.7813 158.452 156.727 -1.76916 307.168 -200.142C457.607 -398.513 578.579 -559.921 577.362 -560.652C576.144 -561.379 453.198 -401.158 302.757 -202.783C152.317 -4.41215 31.344 156.994 32.5621 157.723Z" fill="url(#paint66_radial_19420_351172)"/>
<path d="M129.064 39.3711C130.28 40.1001 253.227 -120.121 403.668 -318.494C554.108 -516.865 675.08 -678.273 673.862 -679.004C672.643 -679.731 549.697 -519.51 399.258 -321.135C248.817 -122.764 127.843 38.6431 129.064 39.3711Z" fill="url(#paint67_radial_19420_351172)"/>
<path d="M-110.505 275.672L565.905 -610.113L331.412 -751.666L-345 134.119L-110.505 275.672Z" fill="url(#paint68_linear_19420_351172)"/>
<path d="M-106.291 284.943L570.119 -600.842L335.625 -742.395L-340.785 143.391L-106.291 284.943Z" fill="url(#paint69_linear_19420_351172)"/>
<path d="M-102.078 294.215L574.331 -591.57L339.838 -733.121L-336.573 152.664L-102.078 294.215Z" fill="url(#paint70_linear_19420_351172)"/>
<path opacity="0.9" d="M-11.3833 131.078L665.026 -754.707L430.533 -896.26L-245.879 -10.4751L-11.3833 131.078Z" fill="url(#paint71_linear_19420_351172)"/>
<path opacity="0.8" d="M27.894 64.854L704.304 -820.93L469.81 -962.482L-206.602 -76.697L27.894 64.854Z" fill="url(#paint72_linear_19420_351172)"/>
<path d="M53.0864 163.565C54.7803 164.579 216.281 -45.7461 413.812 -306.21C611.343 -566.677 770.102 -778.648 768.414 -779.663C766.718 -780.673 605.218 -570.347 407.686 -309.882C210.155 -49.4201 51.396 162.553 53.0864 163.565Z" fill="url(#paint73_radial_19420_351172)"/>
<path d="M-14.481 43.768C-10.6187 46.081 150.02 -159.732 344.314 -415.931C538.608 -672.13 692.99 -881.701 689.134 -884.013C685.271 -886.322 524.636 -680.505 330.337 -424.308C136.046 -168.109 -18.3366 41.457 -14.481 43.768Z" fill="url(#paint74_radial_19420_351172)"/>
<path d="M-56.7187 188.908C-55.5006 189.638 67.445 29.416 217.888 -168.957C368.326 -367.328 489.301 -528.736 488.083 -529.465C486.863 -530.194 363.918 -369.973 213.477 -171.598C63.036 26.7729 -57.9368 188.18 -56.7187 188.908Z" fill="url(#paint75_radial_19420_351172)"/>
<path d="M-174.248 330.915C-173.03 331.644 -50.0829 171.422 100.358 -26.949C250.798 -225.322 371.771 -386.73 370.552 -387.459C369.334 -388.188 246.388 -227.965 95.9467 -29.592C-54.4941 168.779 -175.466 330.185 -174.248 330.915Z" fill="url(#paint76_radial_19420_351172)"/>
<path d="M-97.8642 303.486L578.545 -582.299L344.052 -723.85L-332.359 161.935L-97.8642 303.486Z" fill="url(#paint77_linear_19420_351172)"/>
<path d="M-93.6514 312.758L582.757 -573.025L348.265 -714.578L-328.146 171.207L-93.6514 312.758Z" fill="url(#paint78_linear_19420_351172)"/>
<path d="M-116.752 188.641C-115.533 189.37 7.41221 29.1488 157.854 -169.224C308.293 -367.595 429.266 -529.003 428.049 -529.734C426.831 -530.461 303.884 -370.24 153.443 -171.865C3.00326 26.5058 -117.97 187.912 -116.752 188.641Z" fill="url(#paint79_radial_19420_351172)"/>
<path d="M-20.2498 70.289C-19.0328 71.017 103.914 -89.203 254.355 -287.576C404.793 -485.947 525.767 -647.355 524.549 -648.086C523.33 -648.813 400.384 -488.592 249.945 -290.217C99.5027 -91.846 -21.4701 69.56 -20.2498 70.289Z" fill="url(#paint80_radial_19420_351172)"/>
<path d="M407.531 573.644L1077.87 -315.781L1313.33 -175.502L642.988 713.925L407.531 573.644Z" fill="url(#paint81_linear_19420_351172)"/>
<path d="M396.284 573.644L1066.62 -315.781L1302.08 -175.502L631.741 713.925L396.284 573.644Z" fill="url(#paint82_linear_19420_351172)"/>
<path d="M385.036 573.644L1055.37 -315.781L1290.83 -175.502L620.493 713.925L385.036 573.644Z" fill="url(#paint83_linear_19420_351172)"/>
<path opacity="0.9" d="M521.185 437.766L1191.52 -451.66L1426.98 -311.379L756.643 578.047L521.185 437.766Z" fill="url(#paint84_linear_19420_351172)"/>
<path opacity="0.8" d="M575.532 380.58L1245.87 -508.846L1481.33 -368.565L810.989 520.861L575.532 380.58Z" fill="url(#paint85_linear_19420_351172)"/>
<path d="M613.395 407.612C609.537 405.295 763.989 195.773 958.379 -60.369C1152.77 -316.512 1313.48 -522.285 1317.34 -519.971C1321.19 -517.653 1166.74 -308.131 972.349 -51.987C777.957 204.152 617.247 409.926 613.395 407.612Z" fill="url(#paint86_radial_19420_351172)"/>
<path d="M373.788 573.644L1044.13 -315.781L1279.58 -175.502L609.246 713.925L373.788 573.644Z" fill="url(#paint87_linear_19420_351172)"/>
<path d="M362.541 573.644L1032.88 -315.781L1268.34 -175.502L597.998 713.925L362.541 573.644Z" fill="url(#paint88_linear_19420_351172)"/>
</mask>
<g mask="url(#mask0_19420_351172)">
<rect width="1124.73" height="600" transform="matrix(-1 1.6515e-07 1.8575e-07 1 1031.46 -0.000244141)" fill="url(#paint89_linear_19420_351172)"/>
</g>
</g>
</g>
<defs>
<filter id="filter0_f_19420_351172" x="-127.277" y="-34.0002" width="1192.73" height="668" filterUnits="userSpaceOnUse" color-interpolation-filters="sRGB">
<feFlood flood-opacity="0" result="BackgroundImageFix"/>
<feBlend mode="normal" in="SourceGraphic" in2="BackgroundImageFix" result="shape"/>
<feGaussianBlur stdDeviation="17" result="effect1_foregroundBlur_19420_351172"/>
</filter>
<linearGradient id="paint0_linear_19420_351172" x1="246.224" y1="40.2918" x2="392.877" y2="209.318" gradientUnits="userSpaceOnUse">
<stop stop-color="#4CCD99"/>
<stop offset="1" stop-color="#4CCD99" stop-opacity="0"/>
</linearGradient>
<linearGradient id="paint1_linear_19420_351172" x1="234.976" y1="40.2918" x2="381.63" y2="209.318" gradientUnits="userSpaceOnUse">
<stop stop-color="#4CCD99"/>
<stop offset="1" stop-color="#4CCD99" stop-opacity="0"/>
</linearGradient>
<linearGradient id="paint2_linear_19420_351172" x1="371.125" y1="-95.5864" x2="517.779" y2="73.4401" gradientUnits="userSpaceOnUse">
<stop stop-color="#4CCD99"/>
<stop offset="1" stop-color="#4CCD99" stop-opacity="0"/>
</linearGradient>
<linearGradient id="paint3_linear_19420_351172" x1="425.472" y1="-152.772" x2="572.125" y2="16.2546" gradientUnits="userSpaceOnUse">
<stop stop-color="#4CCD99"/>
<stop offset="1" stop-color="#4CCD99" stop-opacity="0"/>
</linearGradient>
<radialGradient id="paint4_radial_19420_351172" cx="0" cy="0" r="1" gradientTransform="matrix(-142.09 -41.03 258.433 -467.854 -163.933 -179.739)" gradientUnits="userSpaceOnUse">
<stop stop-color="#4CCD99"/>
<stop offset="1" stop-color="#4CCD99" stop-opacity="0"/>
</radialGradient>
<radialGradient id="paint5_radial_19420_351172" cx="0" cy="0" r="1" gradientTransform="matrix(-192.148 253.205 -1.35717 -0.820527 370.245 291.947)" gradientUnits="userSpaceOnUse">
<stop stop-color="#F2352F"/>
<stop offset="1" stop-color="#F2352F" stop-opacity="0"/>
</radialGradient>
<radialGradient id="paint6_radial_19420_351172" cx="0" cy="0" r="1" gradientTransform="matrix(-320.094 421.774 -3.53125 -2.12529 1350.73 332)" gradientUnits="userSpaceOnUse">
<stop stop-color="white"/>
<stop offset="1" stop-color="#2F292B" stop-opacity="0"/>
</radialGradient>
<radialGradient id="paint7_radial_19420_351172" cx="0" cy="0" r="1" gradientTransform="matrix(-320.094 421.774 -3.53125 -2.12529 440.843 -30.4991)" gradientUnits="userSpaceOnUse">
<stop stop-color="#F2352F"/>
<stop offset="1" stop-color="#F2352F" stop-opacity="0"/>
</radialGradient>
<radialGradient id="paint8_radial_19420_351172" cx="0" cy="0" r="1" gradientTransform="matrix(-315.091 415.235 -8.03774 -4.85312 585.22 -11.9551)" gradientUnits="userSpaceOnUse">
<stop stop-color="#F2352F"/>
<stop offset="1" stop-color="#F2352F" stop-opacity="0"/>
</radialGradient>
<radialGradient id="paint9_radial_19420_351172" cx="0" cy="0" r="1" gradientTransform="matrix(-243.579 320.995 -2.55032 -1.5254 370.243 181.916)" gradientUnits="userSpaceOnUse">
<stop stop-color="#F2352F"/>
<stop offset="1" stop-color="#F2352F" stop-opacity="0"/>
</radialGradient>
<radialGradient id="paint10_radial_19420_351172" cx="0" cy="0" r="1" gradientTransform="matrix(-243.578 320.993 -2.55031 -1.5254 266.182 332)" gradientUnits="userSpaceOnUse">
<stop stop-color="#F2352F"/>
<stop offset="1" stop-color="#F2352F" stop-opacity="0"/>
</radialGradient>
<radialGradient id="paint11_radial_19420_351172" cx="0" cy="0" r="1" gradientTransform="matrix(-319.801 422.011 -60.6623 -36.3269 346.992 -448.8)" gradientUnits="userSpaceOnUse">
<stop stop-color="#F2352F"/>
<stop offset="1" stop-color="#F2352F" stop-opacity="0"/>
</radialGradient>
<linearGradient id="paint12_linear_19420_351172" x1="223.729" y1="40.2918" x2="370.383" y2="209.318" gradientUnits="userSpaceOnUse">
<stop stop-color="#4CCD99"/>
<stop offset="1" stop-color="#4CCD99" stop-opacity="0"/>
</linearGradient>
<linearGradient id="paint13_linear_19420_351172" x1="212.481" y1="40.2918" x2="359.135" y2="209.318" gradientUnits="userSpaceOnUse">
<stop stop-color="#4CCD99"/>
<stop offset="1" stop-color="#4CCD99" stop-opacity="0"/>
</linearGradient>
<radialGradient id="paint14_radial_19420_351172" cx="0" cy="0" r="1" gradientTransform="matrix(-243.613 321.039 -2.55068 -1.52562 393.012 231.305)" gradientUnits="userSpaceOnUse">
<stop stop-color="#F2352F"/>
<stop offset="1" stop-color="#F2352F" stop-opacity="0"/>
</radialGradient>
<radialGradient id="paint15_radial_19420_351172" cx="0" cy="0" r="1" gradientTransform="matrix(-243.581 320.997 -2.55034 -1.52541 480.283 107.418)" gradientUnits="userSpaceOnUse">
<stop stop-color="#F2352F"/>
<stop offset="1" stop-color="#F2352F" stop-opacity="0"/>
</radialGradient>
<linearGradient id="paint16_linear_19420_351172" x1="838.288" y1="-114.132" x2="984.941" y2="54.8945" gradientUnits="userSpaceOnUse">
<stop stop-color="#4CCD99"/>
<stop offset="1" stop-color="#4CCD99" stop-opacity="0"/>
</linearGradient>
<linearGradient id="paint17_linear_19420_351172" x1="827.041" y1="-114.132" x2="973.694" y2="54.8945" gradientUnits="userSpaceOnUse">
<stop stop-color="#4CCD99"/>
<stop offset="1" stop-color="#4CCD99" stop-opacity="0"/>
</linearGradient>
<linearGradient id="paint18_linear_19420_351172" x1="815.793" y1="-114.132" x2="962.447" y2="54.8945" gradientUnits="userSpaceOnUse">
<stop stop-color="#4CCD99"/>
<stop offset="1" stop-color="#4CCD99" stop-opacity="0"/>
</linearGradient>
<linearGradient id="paint19_linear_19420_351172" x1="951.942" y1="-250.01" x2="1098.6" y2="-80.9835" gradientUnits="userSpaceOnUse">
<stop stop-color="#F2352F"/>
<stop offset="1" stop-color="#F2352F" stop-opacity="0"/>
</linearGradient>
<linearGradient id="paint20_linear_19420_351172" x1="1006.29" y1="-307.196" x2="1152.94" y2="-138.169" gradientUnits="userSpaceOnUse">
<stop stop-color="#F2352F"/>
<stop offset="1" stop-color="#F2352F" stop-opacity="0"/>
</linearGradient>
<radialGradient id="paint21_radial_19420_351172" cx="0" cy="0" r="1" gradientTransform="matrix(-320.11 421.794 -3.53142 -2.12539 1021.66 -184.922)" gradientUnits="userSpaceOnUse">
<stop stop-color="#F2352F"/>
<stop offset="1" stop-color="#F2352F" stop-opacity="0"/>
</radialGradient>
<radialGradient id="paint22_radial_19420_351172" cx="0" cy="0" r="1" gradientTransform="matrix(-315.092 415.236 -8.03776 -4.85313 1166.04 -166.378)" gradientUnits="userSpaceOnUse">
<stop stop-color="#F2352F"/>
<stop offset="1" stop-color="#F2352F" stop-opacity="0"/>
</radialGradient>
<radialGradient id="paint23_radial_19420_351172" cx="0" cy="0" r="1" gradientTransform="matrix(-243.597 321.018 -2.55051 -1.52552 951.061 27.4924)" gradientUnits="userSpaceOnUse">
<stop stop-color="#F2352F"/>
<stop offset="1" stop-color="#F2352F" stop-opacity="0"/>
</radialGradient>
<radialGradient id="paint24_radial_19420_351172" cx="0" cy="0" r="1" gradientTransform="matrix(-243.596 321.016 -2.5505 -1.52551 846.999 177.576)" gradientUnits="userSpaceOnUse">
<stop stop-color="#F2352F"/>
<stop offset="1" stop-color="#F2352F" stop-opacity="0"/>
</radialGradient>
<linearGradient id="paint25_linear_19420_351172" x1="804.546" y1="-114.132" x2="951.199" y2="54.8945" gradientUnits="userSpaceOnUse">
<stop stop-color="#4CCD99"/>
<stop offset="1" stop-color="#4CCD99" stop-opacity="0"/>
</linearGradient>
<linearGradient id="paint26_linear_19420_351172" x1="793.299" y1="-114.132" x2="939.952" y2="54.8945" gradientUnits="userSpaceOnUse">
<stop stop-color="#4CCD99"/>
<stop offset="1" stop-color="#4CCD99" stop-opacity="0"/>
</linearGradient>
<radialGradient id="paint27_radial_19420_351172" cx="0" cy="0" r="1" gradientTransform="matrix(-243.597 321.018 -2.55051 -1.52552 973.828 76.8812)" gradientUnits="userSpaceOnUse">
<stop stop-color="#4CCD99"/>
<stop offset="1" stop-color="#4CCD99" stop-opacity="0"/>
</radialGradient>
<radialGradient id="paint28_radial_19420_351172" cx="0" cy="0" r="1" gradientTransform="matrix(-243.595 321.016 -2.55049 -1.52551 1061.1 -47.0056)" gradientUnits="userSpaceOnUse">
<stop stop-color="#4CCD99"/>
<stop offset="1" stop-color="#4CCD99" stop-opacity="0"/>
</radialGradient>
<linearGradient id="paint29_linear_19420_351172" x1="553.614" y1="-64.7745" x2="700.268" y2="104.252" gradientUnits="userSpaceOnUse">
<stop stop-color="#4CCD99"/>
<stop offset="1" stop-color="#4CCD99" stop-opacity="0"/>
</linearGradient>
<linearGradient id="paint30_linear_19420_351172" x1="542.367" y1="-64.7745" x2="689.02" y2="104.252" gradientUnits="userSpaceOnUse">
<stop stop-color="#4CCD99"/>
<stop offset="1" stop-color="#4CCD99" stop-opacity="0"/>
</linearGradient>
<linearGradient id="paint31_linear_19420_351172" x1="531.12" y1="-64.7745" x2="677.773" y2="104.252" gradientUnits="userSpaceOnUse">
<stop stop-color="#4CCD99"/>
<stop offset="1" stop-color="#4CCD99" stop-opacity="0"/>
</linearGradient>
<linearGradient id="paint32_linear_19420_351172" x1="667.269" y1="-200.653" x2="813.923" y2="-31.6261" gradientUnits="userSpaceOnUse">
<stop stop-color="#4CCD99"/>
<stop offset="1" stop-color="#4CCD99" stop-opacity="0"/>
</linearGradient>
<linearGradient id="paint33_linear_19420_351172" x1="721.616" y1="-257.838" x2="868.269" y2="-88.8117" gradientUnits="userSpaceOnUse">
<stop stop-color="#4CCD99"/>
<stop offset="1" stop-color="#4CCD99" stop-opacity="0"/>
</linearGradient>
<radialGradient id="paint34_radial_19420_351172" cx="0" cy="0" r="1" gradientTransform="matrix(-320.11 421.794 -3.53142 -2.12539 736.987 -135.565)" gradientUnits="userSpaceOnUse">
<stop stop-color="#4CCD99"/>
<stop offset="1" stop-color="#4CCD99" stop-opacity="0"/>
</radialGradient>
<radialGradient id="paint35_radial_19420_351172" cx="0" cy="0" r="1" gradientTransform="matrix(-315.091 415.236 -8.03774 -4.85312 881.364 -117.022)" gradientUnits="userSpaceOnUse">
<stop stop-color="#4CCD99"/>
<stop offset="1" stop-color="#4CCD99" stop-opacity="0"/>
</radialGradient>
<radialGradient id="paint36_radial_19420_351172" cx="0" cy="0" r="1" gradientTransform="matrix(-243.597 321.018 -2.55051 -1.52552 666.386 76.8496)" gradientUnits="userSpaceOnUse">
<stop stop-color="#4CCD99"/>
<stop offset="1" stop-color="#4CCD99" stop-opacity="0"/>
</radialGradient>
<radialGradient id="paint37_radial_19420_351172" cx="0" cy="0" r="1" gradientTransform="matrix(-243.597 321.018 -2.55051 -1.52552 562.325 226.933)" gradientUnits="userSpaceOnUse">
<stop stop-color="#4CCD99"/>
<stop offset="1" stop-color="#4CCD99" stop-opacity="0"/>
</radialGradient>
<linearGradient id="paint38_linear_19420_351172" x1="519.872" y1="-64.7745" x2="666.526" y2="104.252" gradientUnits="userSpaceOnUse">
<stop stop-color="#4CCD99"/>
<stop offset="1" stop-color="#4CCD99" stop-opacity="0"/>
</linearGradient>
<linearGradient id="paint39_linear_19420_351172" x1="508.625" y1="-64.7745" x2="655.278" y2="104.252" gradientUnits="userSpaceOnUse">
<stop stop-color="#4CCD99"/>
<stop offset="1" stop-color="#4CCD99" stop-opacity="0"/>
</linearGradient>
<radialGradient id="paint40_radial_19420_351172" cx="0" cy="0" r="1" gradientTransform="matrix(-243.595 321.016 -2.55049 -1.52551 689.155 126.238)" gradientUnits="userSpaceOnUse">
<stop stop-color="#4CCD99"/>
<stop offset="1" stop-color="#4CCD99" stop-opacity="0"/>
</radialGradient>
<radialGradient id="paint41_radial_19420_351172" cx="0" cy="0" r="1" gradientTransform="matrix(-243.595 321.015 -2.55049 -1.5255 776.427 2.35194)" gradientUnits="userSpaceOnUse">
<stop stop-color="#4CCD99"/>
<stop offset="1" stop-color="#4CCD99" stop-opacity="0"/>
</radialGradient>
<linearGradient id="paint42_linear_19420_351172" x1="472.438" y1="92.685" x2="259.907" y2="-5.35628" gradientUnits="userSpaceOnUse">
<stop stop-color="#4CCD99"/>
<stop offset="1" stop-color="#4CCD99" stop-opacity="0"/>
</linearGradient>
<linearGradient id="paint43_linear_19420_351172" x1="476.651" y1="101.957" x2="264.12" y2="3.91507" gradientUnits="userSpaceOnUse">
<stop stop-color="#4CCD99"/>
<stop offset="1" stop-color="#4CCD99" stop-opacity="0"/>
</linearGradient>
<linearGradient id="paint44_linear_19420_351172" x1="480.865" y1="111.229" x2="268.333" y2="13.1875" gradientUnits="userSpaceOnUse">
<stop stop-color="#4CCD99"/>
<stop offset="1" stop-color="#4CCD99" stop-opacity="0"/>
</linearGradient>
<linearGradient id="paint45_linear_19420_351172" x1="571.56" y1="-51.9084" x2="359.028" y2="-149.95" gradientUnits="userSpaceOnUse">
<stop stop-color="#4CCD99"/>
<stop offset="1" stop-color="#4CCD99" stop-opacity="0"/>
</linearGradient>
<linearGradient id="paint46_linear_19420_351172" x1="610.836" y1="-118.132" x2="398.304" y2="-216.173" gradientUnits="userSpaceOnUse">
<stop stop-color="#4CCD99"/>
<stop offset="1" stop-color="#4CCD99" stop-opacity="0"/>
</linearGradient>
<radialGradient id="paint47_radial_19420_351172" cx="0" cy="0" r="1" gradientTransform="matrix(-319.942 421.884 3.53136 2.12536 477.577 -84.9985)" gradientUnits="userSpaceOnUse">
<stop stop-color="#4CCD99"/>
<stop offset="1" stop-color="#4CCD99" stop-opacity="0"/>
</radialGradient>
<radialGradient id="paint48_radial_19420_351172" cx="0" cy="0" r="1" gradientTransform="matrix(-314.375 414.502 8.08238 4.84393 404.154 -197.072)" gradientUnits="userSpaceOnUse">
<stop stop-color="#4CCD99"/>
<stop offset="1" stop-color="#4CCD99" stop-opacity="0"/>
</radialGradient>
<radialGradient id="paint49_radial_19420_351172" cx="0" cy="0" r="1" gradientTransform="matrix(-243.475 321.021 2.5502 1.52533 282.51 52.7731)" gradientUnits="userSpaceOnUse">
<stop stop-color="#4CCD99"/>
<stop offset="1" stop-color="#4CCD99" stop-opacity="0"/>
</radialGradient>
<radialGradient id="paint50_radial_19420_351172" cx="0" cy="0" r="1" gradientTransform="matrix(-243.511 321.069 2.55059 1.52556 164.98 194.779)" gradientUnits="userSpaceOnUse">
<stop stop-color="#4CCD99"/>
<stop offset="1" stop-color="#4CCD99" stop-opacity="0"/>
</radialGradient>
<linearGradient id="paint51_linear_19420_351172" x1="485.077" y1="120.501" x2="272.546" y2="22.4596" gradientUnits="userSpaceOnUse">
<stop stop-color="#4CCD99"/>
<stop offset="1" stop-color="#4CCD99" stop-opacity="0"/>
</linearGradient>
<linearGradient id="paint52_linear_19420_351172" x1="489.291" y1="129.772" x2="276.759" y2="31.7312" gradientUnits="userSpaceOnUse">
<stop stop-color="#4CCD99"/>
<stop offset="1" stop-color="#4CCD99" stop-opacity="0"/>
</linearGradient>
<radialGradient id="paint53_radial_19420_351172" cx="0" cy="0" r="1" gradientTransform="matrix(-243.492 321.043 2.55038 1.52544 222.477 52.5044)" gradientUnits="userSpaceOnUse">
<stop stop-color="#F2352F"/>
<stop offset="1" stop-color="#F2352F" stop-opacity="0"/>
</radialGradient>
<radialGradient id="paint54_radial_19420_351172" cx="0" cy="0" r="1" gradientTransform="matrix(-243.475 321.021 2.5502 1.52533 318.977 -65.8473)" gradientUnits="userSpaceOnUse">
<stop stop-color="#4CCD99"/>
<stop offset="1" stop-color="#4CCD99" stop-opacity="0"/>
</radialGradient>
<linearGradient id="paint55_linear_19420_351172" x1="554.925" y1="-161.283" x2="342.393" y2="-259.325" gradientUnits="userSpaceOnUse">
<stop stop-color="#F2352F"/>
<stop offset="1" stop-color="#F2352F" stop-opacity="0"/>
</linearGradient>
<linearGradient id="paint56_linear_19420_351172" x1="559.139" y1="-152.012" x2="346.607" y2="-250.053" gradientUnits="userSpaceOnUse">
<stop stop-color="#F2352F"/>
<stop offset="1" stop-color="#F2352F" stop-opacity="0"/>
</linearGradient>
<linearGradient id="paint57_linear_19420_351172" x1="563.351" y1="-142.739" x2="350.82" y2="-240.781" gradientUnits="userSpaceOnUse">
<stop stop-color="#4CCD99"/>
<stop offset="1" stop-color="#4CCD99" stop-opacity="0"/>
</linearGradient>
<linearGradient id="paint58_linear_19420_351172" x1="654.047" y1="-305.877" x2="441.515" y2="-403.918" gradientUnits="userSpaceOnUse">
<stop stop-color="#4CCD99"/>
<stop offset="1" stop-color="#4CCD99" stop-opacity="0"/>
</linearGradient>
<linearGradient id="paint59_linear_19420_351172" x1="693.323" y1="-372.101" x2="480.792" y2="-470.141" gradientUnits="userSpaceOnUse">
<stop stop-color="#F2352F"/>
<stop offset="1" stop-color="#F2352F" stop-opacity="0"/>
</linearGradient>
<radialGradient id="paint60_radial_19420_351172" cx="0" cy="0" r="1" gradientTransform="matrix(-319.943 421.885 3.53138 2.12537 560.065 -338.968)" gradientUnits="userSpaceOnUse">
<stop stop-color="#4CCD99"/>
<stop offset="1" stop-color="#4CCD99" stop-opacity="0"/>
</radialGradient>
<radialGradient id="paint61_radial_19420_351172" cx="0" cy="0" r="1" gradientTransform="matrix(-314.375 414.503 8.08239 4.84393 486.641 -451.041)" gradientUnits="userSpaceOnUse">
<stop stop-color="#4CCD99"/>
<stop offset="1" stop-color="#4CCD99" stop-opacity="0"/>
</radialGradient>
<radialGradient id="paint62_radial_19420_351172" cx="0" cy="0" r="1" gradientTransform="matrix(-243.475 321.021 2.5502 1.52533 364.997 -201.196)" gradientUnits="userSpaceOnUse">
<stop stop-color="#4CCD99"/>
<stop offset="1" stop-color="#4CCD99" stop-opacity="0"/>
</radialGradient>
<radialGradient id="paint63_radial_19420_351172" cx="0" cy="0" r="1" gradientTransform="matrix(-243.511 321.069 2.55059 1.52556 247.467 -59.1896)" gradientUnits="userSpaceOnUse">
<stop stop-color="#4CCD99"/>
<stop offset="1" stop-color="#4CCD99" stop-opacity="0"/>
</radialGradient>
<linearGradient id="paint64_linear_19420_351172" x1="567.564" y1="-133.468" x2="355.033" y2="-231.509" gradientUnits="userSpaceOnUse">
<stop stop-color="#4CCD99"/>
<stop offset="1" stop-color="#4CCD99" stop-opacity="0"/>
</linearGradient>
<linearGradient id="paint65_linear_19420_351172" x1="571.778" y1="-124.197" x2="359.246" y2="-222.238" gradientUnits="userSpaceOnUse">
<stop stop-color="#4CCD99"/>
<stop offset="1" stop-color="#4CCD99" stop-opacity="0"/>
</linearGradient>
<radialGradient id="paint66_radial_19420_351172" cx="0" cy="0" r="1" gradientTransform="matrix(-243.491 321.041 2.55037 1.52543 304.963 -201.464)" gradientUnits="userSpaceOnUse">
<stop stop-color="#4CCD99"/>
<stop offset="1" stop-color="#4CCD99" stop-opacity="0"/>
</radialGradient>
<radialGradient id="paint67_radial_19420_351172" cx="0" cy="0" r="1" gradientTransform="matrix(-243.476 321.022 2.55022 1.52534 401.464 -319.816)" gradientUnits="userSpaceOnUse">
<stop stop-color="#4CCD99"/>
<stop offset="1" stop-color="#4CCD99" stop-opacity="0"/>
</radialGradient>
<linearGradient id="paint68_linear_19420_351172" x1="405.611" y1="-130.365" x2="193.08" y2="-228.406" gradientUnits="userSpaceOnUse">
<stop stop-color="#4CCD99"/>
<stop offset="1" stop-color="#4CCD99" stop-opacity="0"/>
</linearGradient>
<linearGradient id="paint69_linear_19420_351172" x1="409.825" y1="-121.094" x2="197.294" y2="-219.135" gradientUnits="userSpaceOnUse">
<stop stop-color="#4CCD99"/>
<stop offset="1" stop-color="#4CCD99" stop-opacity="0"/>
</linearGradient>
<linearGradient id="paint70_linear_19420_351172" x1="414.038" y1="-111.821" x2="201.506" y2="-209.863" gradientUnits="userSpaceOnUse">
<stop stop-color="#4CCD99"/>
<stop offset="1" stop-color="#4CCD99" stop-opacity="0"/>
</linearGradient>
<linearGradient id="paint71_linear_19420_351172" x1="504.733" y1="-274.959" x2="292.201" y2="-373" gradientUnits="userSpaceOnUse">
<stop stop-color="#4CCD99"/>
<stop offset="1" stop-color="#4CCD99" stop-opacity="0"/>
</linearGradient>
<linearGradient id="paint72_linear_19420_351172" x1="544.01" y1="-341.183" x2="331.479" y2="-439.224" gradientUnits="userSpaceOnUse">
<stop stop-color="#4CCD99"/>
<stop offset="1" stop-color="#4CCD99" stop-opacity="0"/>
</linearGradient>
<radialGradient id="paint73_radial_19420_351172" cx="0" cy="0" r="1" gradientTransform="matrix(-319.928 421.866 3.53121 2.12527 410.751 -308.049)" gradientUnits="userSpaceOnUse">
<stop stop-color="#4CCD99"/>
<stop offset="1" stop-color="#4CCD99" stop-opacity="0"/>
</radialGradient>
<radialGradient id="paint74_radial_19420_351172" cx="0" cy="0" r="1" gradientTransform="matrix(-314.381 414.51 8.08254 4.84402 337.327 -420.122)" gradientUnits="userSpaceOnUse">
<stop stop-color="#4CCD99"/>
<stop offset="1" stop-color="#4CCD99" stop-opacity="0"/>
</radialGradient>
<radialGradient id="paint75_radial_19420_351172" cx="0" cy="0" r="1" gradientTransform="matrix(-243.491 321.043 2.55038 1.52544 215.683 -170.278)" gradientUnits="userSpaceOnUse">
<stop stop-color="#4CCD99"/>
<stop offset="1" stop-color="#4CCD99" stop-opacity="0"/>
</radialGradient>
<radialGradient id="paint76_radial_19420_351172" cx="0" cy="0" r="1" gradientTransform="matrix(-243.511 321.069 2.55059 1.52556 98.1534 -28.2716)" gradientUnits="userSpaceOnUse">
<stop stop-color="#4CCD99"/>
<stop offset="1" stop-color="#4CCD99" stop-opacity="0"/>
</radialGradient>
<linearGradient id="paint77_linear_19420_351172" x1="418.252" y1="-102.55" x2="205.72" y2="-200.591" gradientUnits="userSpaceOnUse">
<stop stop-color="#4CCD99"/>
<stop offset="1" stop-color="#4CCD99" stop-opacity="0"/>
</linearGradient>
<linearGradient id="paint78_linear_19420_351172" x1="422.465" y1="-93.2783" x2="209.933" y2="-191.319" gradientUnits="userSpaceOnUse">
<stop stop-color="#4CCD99"/>
<stop offset="1" stop-color="#4CCD99" stop-opacity="0"/>
</linearGradient>
<radialGradient id="paint79_radial_19420_351172" cx="0" cy="0" r="1" gradientTransform="matrix(-243.49 321.041 2.55037 1.52543 155.65 -170.546)" gradientUnits="userSpaceOnUse">
<stop stop-color="#4CCD99"/>
<stop offset="1" stop-color="#4CCD99" stop-opacity="0"/>
</radialGradient>
<radialGradient id="paint80_radial_19420_351172" cx="0" cy="0" r="1" gradientTransform="matrix(-243.475 321.021 2.55021 1.52533 252.151 -288.898)" gradientUnits="userSpaceOnUse">
<stop stop-color="#4CCD99"/>
<stop offset="1" stop-color="#4CCD99" stop-opacity="0"/>
</radialGradient>
<linearGradient id="paint81_linear_19420_351172" x1="637.616" y1="-3.93271" x2="784.269" y2="165.094" gradientUnits="userSpaceOnUse">
<stop stop-color="#4CCD99"/>
<stop offset="1" stop-color="#4CCD99" stop-opacity="0"/>
</linearGradient>
<linearGradient id="paint82_linear_19420_351172" x1="626.368" y1="-3.93271" x2="773.022" y2="165.094" gradientUnits="userSpaceOnUse">
<stop stop-color="#4CCD99"/>
<stop offset="1" stop-color="#4CCD99" stop-opacity="0"/>
</linearGradient>
<linearGradient id="paint83_linear_19420_351172" x1="615.12" y1="-3.93271" x2="761.774" y2="165.094" gradientUnits="userSpaceOnUse">
<stop stop-color="#4CCD99"/>
<stop offset="1" stop-color="#4CCD99" stop-opacity="0"/>
</linearGradient>
<linearGradient id="paint84_linear_19420_351172" x1="751.27" y1="-139.811" x2="897.923" y2="29.2154" gradientUnits="userSpaceOnUse">
<stop stop-color="#F2352F"/>
<stop offset="1" stop-color="#F2352F" stop-opacity="0"/>
</linearGradient>
<linearGradient id="paint85_linear_19420_351172" x1="805.617" y1="-196.996" x2="952.27" y2="-27.9698" gradientUnits="userSpaceOnUse">
<stop stop-color="#4CCD99"/>
<stop offset="1" stop-color="#4CCD99" stop-opacity="0"/>
</linearGradient>
<radialGradient id="paint86_radial_19420_351172" cx="0" cy="0" r="1" gradientTransform="matrix(-315.091 415.235 -8.03774 -4.85312 965.365 -56.1796)" gradientUnits="userSpaceOnUse">
<stop stop-color="#F2352F"/>
<stop offset="1" stop-color="#F2352F" stop-opacity="0"/>
</radialGradient>
<linearGradient id="paint87_linear_19420_351172" x1="603.873" y1="-3.93271" x2="750.527" y2="165.094" gradientUnits="userSpaceOnUse">
<stop stop-color="#4CCD99"/>
<stop offset="1" stop-color="#4CCD99" stop-opacity="0"/>
</linearGradient>
<linearGradient id="paint88_linear_19420_351172" x1="592.626" y1="-3.93271" x2="739.279" y2="165.094" gradientUnits="userSpaceOnUse">
<stop stop-color="#4CCD99"/>
<stop offset="1" stop-color="#4CCD99" stop-opacity="0"/>
</linearGradient>
<linearGradient id="paint89_linear_19420_351172" x1="944.956" y1="556" x2="562.366" y2="1.99545e-05" gradientUnits="userSpaceOnUse">
<stop offset="0.434318" stop-color="#13F584" stop-opacity="0"/>
<stop offset="1" stop-color="#13F584"/>
</linearGradient>
<clipPath id="clip0_19420_351172">
<rect width="1000" height="600" fill="white" transform="translate(1000 600) rotate(180)"/>
</clipPath>
</defs>
</svg>
