<svg width="24" height="24" viewBox="0 0 24 24" fill="none" xmlns="http://www.w3.org/2000/svg">
<path d="M19.4233 18.3363V19.3923C19.4233 20.406 18.5891 21.2402 17.5753 21.2402H13.436C13.5521 20.8917 13.6155 20.5327 13.6155 20.1526V19.6563H17.5753C17.7232 19.6563 17.8393 19.5401 17.8393 19.3923V18.3363C17.8393 17.9034 18.1984 17.5443 18.6313 17.5443C19.0643 17.5443 19.4233 17.9034 19.4233 18.3363ZM13.6155 4.34482H17.5753C17.7232 4.34482 17.8393 4.46098 17.8393 4.60881V5.66477C17.8393 6.09772 18.1984 6.45674 18.6313 6.45674C19.0643 6.45674 19.4233 6.09772 19.4233 5.66477V4.60881C19.4233 3.59509 18.5891 2.76088 17.5753 2.76088H13.436C13.5521 3.10935 13.6155 3.46837 13.6155 3.84852V4.34482ZM22.3589 11.4409L19.191 8.273C18.8847 7.96677 18.3779 7.96677 18.0716 8.273C17.7654 8.57923 17.7654 9.08609 18.0716 9.39231L19.8879 11.2086H14.4075C13.9745 11.2086 13.6155 11.5676 13.6155 12.0005C13.6155 12.4335 13.9745 12.7925 14.4075 12.7925H19.8879L18.0716 14.6088C17.7654 14.915 17.7654 15.4219 18.0716 15.7281C18.23 15.8865 18.4307 15.9604 18.6313 15.9604C18.8319 15.9604 19.0326 15.8865 19.191 15.7281L22.3589 12.5602C22.6651 12.254 22.6651 11.7471 22.3589 11.4409ZM11.3219 2.3934C10.87 2.04071 10.2956 1.91717 9.73589 2.05655L3.40013 3.64049C2.57648 3.84641 2.00098 4.58452 2.00098 5.43352V18.5676C2.00098 19.4176 2.57648 20.1547 3.40013 20.3606L9.73695 21.9445C9.88689 21.9815 10.0379 22.0005 10.1878 22.0005C10.5954 22.0005 10.9925 21.8653 11.3219 21.6077C11.7728 21.255 12.0316 20.7249 12.0316 20.1515V3.84958C12.0316 3.27619 11.7728 2.7461 11.3219 2.3934Z" fill="white"/>
</svg>

