<svg width="20" height="20" viewBox="0 0 20 20" fill="none" xmlns="http://www.w3.org/2000/svg">
<path d="M12.418 19.1289C12.3516 19.0898 12.2813 19.0508 12.2149 19.0117L11.8047 19.1875C11 19.5312 10.0664 19.2187 9.62895 18.4609L8.92583 17.2422C8.48833 16.4844 8.68755 15.5195 9.38676 14.9922L9.74223 14.7266C9.74223 14.6875 9.74223 14.6484 9.74223 14.6094C9.74223 14.5703 9.74223 14.5313 9.74223 14.4922L9.38676 14.2266C8.68755 13.6992 8.49224 12.7344 8.92583 11.9766L9.62895 10.7578C9.83989 10.3946 10.1719 10.1211 10.5664 9.98832C9.59379 9.54302 8.53521 9.31255 7.46491 9.31646C3.34385 9.31255 0.00012207 12.6563 0.00012207 16.7773V18.9414C0.00012207 19.5273 0.472775 20 1.05871 20H12.5781C12.5235 19.8632 12.4883 19.7187 12.4688 19.5703L12.418 19.1289Z" fill="white"/>
<path d="M7.46359 8.19525C9.72665 8.19525 11.5612 6.36068 11.5612 4.09762C11.5612 1.83457 9.72665 0 7.46359 0C5.20054 0 3.36597 1.83457 3.36597 4.09762C3.36597 6.36068 5.20054 8.19525 7.46359 8.19525Z" fill="white"/>
<path d="M19.7475 15.8674L18.9077 15.2385C18.9741 14.8244 18.9741 14.3986 18.9077 13.9846L19.7475 13.3557C20.0053 13.1643 20.0756 12.8088 19.9155 12.5276L19.2124 11.3088C19.0522 11.0315 18.7085 10.9143 18.4116 11.0432L17.4468 11.4534C17.1186 11.1877 16.7514 10.9768 16.3608 10.8244L16.2358 9.78149C16.1968 9.46118 15.9272 9.2229 15.603 9.2229H14.1929C13.8726 9.2229 13.5991 9.46509 13.5601 9.78149L13.4351 10.8244C13.0405 10.9768 12.6773 11.1877 12.3491 11.4534L11.3843 11.0432C11.0874 10.9182 10.7437 11.0315 10.5835 11.3088L9.88041 12.5276C9.72026 12.8049 9.79057 13.1604 10.0484 13.3557L10.8882 13.9846C10.8218 14.3986 10.8218 14.8244 10.8882 15.2385L10.0484 15.8674C9.79057 16.0627 9.72026 16.4182 9.88041 16.6955L10.5835 17.9142C10.7437 18.1916 11.0874 18.3088 11.3843 18.1838L12.3491 17.7697C12.6773 18.0353 13.0444 18.2463 13.4351 18.3986L13.5601 19.4416C13.5991 19.7619 13.8687 20.0002 14.1929 20.0002H15.603C15.9233 20.0002 16.1968 19.758 16.2358 19.4416L16.3608 18.3986C16.7514 18.2463 17.1186 18.0353 17.4468 17.7697L18.4116 18.1799C18.7085 18.3049 19.0522 18.1916 19.2124 17.9103L19.9155 16.6916C20.0756 16.4182 20.0053 16.0627 19.7475 15.8674ZM14.896 16.133C14.0562 16.133 13.3726 15.4494 13.3726 14.6096C13.3726 13.7697 14.0562 13.0862 14.896 13.0862C15.7358 13.0862 16.4194 13.7697 16.4194 14.6096C16.4194 15.4494 15.7358 16.133 14.896 16.133Z" fill="white"/>
</svg>
