<svg width="24" height="24" viewBox="0 0 24 24" fill="none" xmlns="http://www.w3.org/2000/svg">
<path d="M14.4179 21.1289C14.3515 21.0898 14.2812 21.0508 14.2147 21.0117L13.8046 21.1875C12.9999 21.5312 12.0663 21.2187 11.6288 20.4609L10.9257 19.2422C10.4882 18.4844 10.6874 17.5195 11.3866 16.9922L11.7421 16.7266C11.7421 16.6875 11.7421 16.6484 11.7421 16.6094C11.7421 16.5703 11.7421 16.5313 11.7421 16.4922L11.3866 16.2266C10.6874 15.6992 10.4921 14.7344 10.9257 13.9766L11.6288 12.7578C11.8398 12.3946 12.1718 12.1211 12.5663 11.9883C11.5937 11.543 10.5351 11.3125 9.46478 11.3165C5.34372 11.3125 2 14.6563 2 18.7773V20.9414C2 21.5273 2.47265 22 3.05859 22H14.578C14.5233 21.8632 14.4882 21.7187 14.4686 21.5703L14.4179 21.1289Z" fill="#13F584"/>
<path d="M9.46383 10.1952C11.7269 10.1952 13.5615 8.36068 13.5615 6.09762C13.5615 3.83457 11.7269 2 9.46383 2C7.20078 2 5.36621 3.83457 5.36621 6.09762C5.36621 8.36068 7.20078 10.1952 9.46383 10.1952Z" fill="#13F584"/>
<path d="M21.7474 17.8671L20.9076 17.2382C20.974 16.8242 20.974 16.3984 20.9076 15.9843L21.7474 15.3554C22.0052 15.164 22.0755 14.8086 21.9154 14.5273L21.2122 13.3086C21.0521 13.0312 20.7083 12.914 20.4115 13.043L19.4466 13.4531C19.1185 13.1875 18.7513 12.9765 18.3607 12.8242L18.2357 11.7812C18.1966 11.4609 17.9271 11.2227 17.6029 11.2227H16.1928C15.8724 11.2227 15.599 11.4648 15.5599 11.7812L15.4349 12.8242C15.0404 12.9765 14.6771 13.1875 14.349 13.4531L13.3842 13.043C13.0873 12.918 12.7436 13.0312 12.5834 13.3086L11.8803 14.5273C11.7201 14.8047 11.7904 15.1601 12.0483 15.3554L12.8881 15.9843C12.8217 16.3984 12.8217 16.8242 12.8881 17.2382L12.0483 17.8671C11.7904 18.0624 11.7201 18.4179 11.8803 18.6953L12.5834 19.914C12.7436 20.1913 13.0873 20.3085 13.3842 20.1835L14.349 19.7695C14.6771 20.0351 15.0443 20.246 15.4349 20.3984L15.5599 21.4413C15.599 21.7616 15.8685 21.9999 16.1928 21.9999H17.6029C17.9232 21.9999 18.1966 21.7577 18.2357 21.4413L18.3607 20.3984C18.7513 20.246 19.1185 20.0351 19.4466 19.7695L20.4115 20.1796C20.7083 20.3046 21.0521 20.1913 21.2122 19.9101L21.9154 18.6913C22.0755 18.4179 22.0052 18.0624 21.7474 17.8671ZM16.8959 18.1328C16.056 18.1328 15.3724 17.4492 15.3724 16.6093C15.3724 15.7695 16.056 15.0859 16.8959 15.0859C17.7357 15.0859 18.4193 15.7695 18.4193 16.6093C18.4193 17.4492 17.7357 18.1328 16.8959 18.1328Z" fill="#13F584"/>
</svg>
