<svg width="20" height="20" viewBox="0 0 20 20" fill="none" xmlns="http://www.w3.org/2000/svg">
<path d="M3.69165 6.54956L4.55653 16.9902C4.61851 17.7431 5.25985 18.3334 6.01564 18.3334H13.9846C14.7403 18.3334 15.3817 17.7431 15.4437 16.9902L16.3085 6.54956H3.69165ZM7.55822 16.3803C7.30262 16.3803 7.08758 16.1815 7.07137 15.9225L6.58309 8.04491C6.56639 7.7755 6.77095 7.54377 7.03989 7.52707C7.31883 7.5075 7.54058 7.71447 7.55773 7.98387L8.04601 15.8615C8.0633 16.1404 7.84256 16.3803 7.55822 16.3803ZM10.4884 15.892C10.4884 16.1619 10.27 16.3803 10.0001 16.3803C9.73019 16.3803 9.5118 16.1619 9.5118 15.892V8.0144C9.5118 7.74452 9.73019 7.52612 10.0001 7.52612C10.27 7.52612 10.4884 7.74452 10.4884 8.0144V15.892ZM13.4171 8.04494L12.9288 15.9225C12.9127 16.1789 12.6991 16.3925 12.411 16.3793C12.142 16.3626 11.9374 16.1309 11.9541 15.8615L12.4424 7.9839C12.4591 7.7145 12.6952 7.51851 12.9603 7.5271C13.2292 7.5438 13.4338 7.77554 13.4171 8.04494Z" fill="white"/>
<path d="M16.3477 3.61987H13.418V3.13159C13.418 2.32384 12.7609 1.66675 11.9531 1.66675H8.04688C7.23913 1.66675 6.58203 2.32384 6.58203 3.13159V3.61987H3.65234C3.11299 3.61987 2.67578 4.05708 2.67578 4.59644C2.67578 5.13573 3.11299 5.573 3.65234 5.573C8.14342 5.573 11.8567 5.573 16.3477 5.573C16.887 5.573 17.3242 5.13573 17.3242 4.59644C17.3242 4.05708 16.887 3.61987 16.3477 3.61987ZM12.4414 3.61987H7.55859V3.13159C7.55859 2.86219 7.77747 2.64331 8.04688 2.64331H11.9531C12.2225 2.64331 12.4414 2.86219 12.4414 3.13159V3.61987Z" fill="white"/>
</svg>
