<svg width="36" height="36" viewBox="0 0 36 36" fill="none" xmlns="http://www.w3.org/2000/svg">
<rect width="36" height="36" rx="18" fill="white" fill-opacity="0.04"/>
<path fill-rule="evenodd" clip-rule="evenodd" d="M16.5833 10.5C16.031 10.5 15.5833 10.9477 15.5833 11.5C15.5833 11.7761 15.3595 12 15.0833 12H15H12.75C12.3358 12 12 12.3358 12 12.75C12 13.1642 12.3358 13.5 12.75 13.5H15H15.0833H20.9155H20.9167H21H23.25C23.6642 13.5 24 13.1642 24 12.75C24 12.3358 23.6642 12 23.25 12H20.9161C20.6402 11.9997 20.4166 11.7759 20.4166 11.5C20.4166 10.9477 19.969 10.5 19.4167 10.5H16.5833Z" fill="white"/>
<path fill-rule="evenodd" clip-rule="evenodd" d="M13.5 15C13.2903 15 13.0901 15.0878 12.9481 15.2422C12.8061 15.3965 12.7352 15.6033 12.7526 15.8123L13.3307 22.7491C13.4602 24.304 14.76 25.5 16.3203 25.5H19.6797C21.24 25.5 22.5397 24.304 22.6693 22.7491L23.2474 15.8123C23.2648 15.6033 23.1939 15.3965 23.0519 15.2422C22.9099 15.0878 22.7098 15 22.5 15H13.5Z" fill="white"/>
</svg>
