<svg width="287" height="66" viewBox="0 0 287 66" fill="none" xmlns="http://www.w3.org/2000/svg">
<g filter="url(#filter0_d_19140_206813)">
<path d="M0.5 28.8C0.5 16.8009 0.5 10.8013 3.55573 6.59544C4.5426 5.23712 5.73712 4.0426 7.09544 3.05573C11.3013 0 17.3009 0 29.3 0H286.5V35.2C286.5 47.1991 286.5 53.1987 283.444 57.4046C282.457 58.7629 281.263 59.9574 279.905 60.9443C275.699 64 269.699 64 257.7 64H29.3C17.3009 64 11.3013 64 7.09544 60.9443C5.73712 59.9574 4.5426 58.7629 3.55573 57.4046C0.5 53.1987 0.5 47.1991 0.5 35.2V28.8Z" fill="#13F584" fill-opacity="0.12" shape-rendering="crispEdges"/>
<path d="M12.851 27C12.7383 27 12.682 26.9437 12.682 26.831V25.791C12.682 25.6783 12.7383 25.622 12.851 25.622H13.93C14.32 25.622 14.6103 25.531 14.801 25.349C15.0003 25.1583 15.1 24.8593 15.1 24.452V17.25C15.1 17.1373 15.1563 17.081 15.269 17.081H16.478C16.5907 17.081 16.647 17.1373 16.647 17.25V24.478C16.647 25.076 16.5603 25.557 16.387 25.921C16.2223 26.285 15.9407 26.558 15.542 26.74C15.152 26.9133 14.6147 27 13.93 27H12.851ZM20.8937 27.143C19.8364 27.143 19.1041 26.7487 18.6967 25.96C18.5841 25.7347 18.5017 25.4747 18.4497 25.18C18.4064 24.8853 18.3847 24.4997 18.3847 24.023V19.928C18.3847 19.8153 18.4411 19.759 18.5537 19.759H19.6457C19.7584 19.759 19.8147 19.8153 19.8147 19.928V24.036C19.8147 24.7727 19.9404 25.284 20.1917 25.57C20.4171 25.8127 20.7551 25.934 21.2057 25.934C21.7257 25.934 22.1287 25.7693 22.4147 25.44C22.6054 25.232 22.7441 24.9503 22.8307 24.595C22.9174 24.2397 22.9607 23.7587 22.9607 23.152V19.928C22.9607 19.8153 23.0171 19.759 23.1297 19.759H24.2217C24.3344 19.759 24.3907 19.8153 24.3907 19.928V26.831C24.3907 26.9437 24.3344 27 24.2217 27H23.1297C23.0171 27 22.9607 26.9437 22.9607 26.831V26.298C22.9607 26.2113 22.9304 26.168 22.8697 26.168C22.8351 26.168 22.7917 26.1983 22.7397 26.259C22.4624 26.571 22.1764 26.7963 21.8817 26.935C21.5871 27.0737 21.2577 27.143 20.8937 27.143ZM29.1331 27.143C28.2664 27.143 27.5298 26.9437 26.9231 26.545C26.3164 26.1377 25.9351 25.557 25.7791 24.803V24.764C25.7791 24.6687 25.8311 24.621 25.9351 24.621H27.0531C27.1484 24.621 27.2091 24.6687 27.2351 24.764C27.3564 25.1453 27.5774 25.44 27.8981 25.648C28.2188 25.856 28.6304 25.96 29.1331 25.96C29.5751 25.96 29.9304 25.8777 30.1991 25.713C30.4678 25.5397 30.6021 25.297 30.6021 24.985C30.6021 24.7423 30.5198 24.5517 30.3551 24.413C30.1904 24.2657 29.9824 24.153 29.7311 24.075C29.4798 23.997 29.1461 23.9147 28.7301 23.828C28.1581 23.7153 27.6944 23.5983 27.3391 23.477C26.9838 23.3557 26.6804 23.1563 26.4291 22.879C26.1778 22.6017 26.0521 22.2203 26.0521 21.735C26.0521 21.0503 26.3078 20.526 26.8191 20.162C27.3304 19.798 27.9804 19.616 28.7691 19.616C29.5491 19.616 30.2034 19.811 30.7321 20.201C31.2694 20.5823 31.6204 21.1197 31.7851 21.813L31.7981 21.865C31.7894 21.9517 31.7331 21.995 31.6291 21.995H30.6281C30.5328 21.995 30.4721 21.9473 30.4461 21.852C30.3161 21.4967 30.1038 21.2323 29.8091 21.059C29.5231 20.877 29.1764 20.786 28.7691 20.786C28.3531 20.786 28.0281 20.864 27.7941 21.02C27.5601 21.176 27.4431 21.3883 27.4431 21.657C27.4431 21.8737 27.5211 22.047 27.6771 22.177C27.8331 22.2983 28.0238 22.3937 28.2491 22.463C28.4831 22.5323 28.8081 22.606 29.2241 22.684C29.8134 22.7967 30.2944 22.918 30.6671 23.048C31.0398 23.1693 31.3561 23.3773 31.6161 23.672C31.8848 23.958 32.0191 24.3567 32.0191 24.868C32.0191 25.5613 31.7634 26.116 31.2521 26.532C30.7408 26.9393 30.0344 27.143 29.1331 27.143ZM35.6919 27C35.1286 27 34.7039 26.87 34.4179 26.61C34.1319 26.35 33.9889 25.9123 33.9889 25.297V21.124C33.9889 21.0113 33.9326 20.955 33.8199 20.955H33.0399C32.9272 20.955 32.8709 20.8987 32.8709 20.786V19.928C32.8709 19.8153 32.9272 19.759 33.0399 19.759H33.8199C33.9326 19.759 33.9889 19.7027 33.9889 19.59V17.25C33.9889 17.1373 34.0452 17.081 34.1579 17.081H35.2499C35.3626 17.081 35.4189 17.1373 35.4189 17.25V19.59C35.4189 19.7027 35.4752 19.759 35.5879 19.759H36.7579C36.8706 19.759 36.9269 19.8153 36.9269 19.928V20.786C36.9269 20.8987 36.8706 20.955 36.7579 20.955H35.5879C35.4752 20.955 35.4189 21.0113 35.4189 21.124V24.92C35.4189 25.2233 35.4622 25.4443 35.5489 25.583C35.6356 25.7217 35.8349 25.791 36.1469 25.791H36.7449C36.8576 25.791 36.9139 25.8473 36.9139 25.96V26.831C36.9139 26.9437 36.8576 27 36.7449 27H35.6919ZM44.0962 27C43.5329 27 43.1082 26.87 42.8222 26.61C42.5362 26.35 42.3932 25.9123 42.3932 25.297V21.124C42.3932 21.0113 42.3369 20.955 42.2242 20.955H41.4442C41.3315 20.955 41.2752 20.8987 41.2752 20.786V19.928C41.2752 19.8153 41.3315 19.759 41.4442 19.759H42.2242C42.3369 19.759 42.3932 19.7027 42.3932 19.59V17.25C42.3932 17.1373 42.4495 17.081 42.5622 17.081H43.6542C43.7669 17.081 43.8232 17.1373 43.8232 17.25V19.59C43.8232 19.7027 43.8795 19.759 43.9922 19.759H45.1622C45.2749 19.759 45.3312 19.8153 45.3312 19.928V20.786C45.3312 20.8987 45.2749 20.955 45.1622 20.955H43.9922C43.8795 20.955 43.8232 21.0113 43.8232 21.124V24.92C43.8232 25.2233 43.8665 25.4443 43.9532 25.583C44.0399 25.7217 44.2392 25.791 44.5512 25.791H45.1492C45.2619 25.791 45.3182 25.8473 45.3182 25.96V26.831C45.3182 26.9437 45.2619 27 45.1492 27H44.0962ZM46.8141 27C46.7014 27 46.6451 26.9437 46.6451 26.831V19.928C46.6451 19.8153 46.7014 19.759 46.8141 19.759H47.9061C48.0188 19.759 48.0751 19.8153 48.0751 19.928V20.383C48.0751 20.4783 48.1011 20.526 48.1531 20.526C48.1964 20.526 48.2354 20.5 48.2701 20.448C48.5474 20.1533 48.8464 19.941 49.1671 19.811C49.4878 19.681 49.8518 19.616 50.2591 19.616C50.3718 19.616 50.4281 19.6723 50.4281 19.785V20.851C50.4281 20.9637 50.3718 21.02 50.2591 21.02H50.0381C49.4574 21.02 49.0068 21.1803 48.6861 21.501C48.2788 21.891 48.0751 22.5323 48.0751 23.425V26.831C48.0751 26.9437 48.0188 27 47.9061 27H46.8141ZM51.7665 29.678C51.6538 29.678 51.5975 29.6217 51.5975 29.509V28.599C51.5975 28.4863 51.6538 28.43 51.7665 28.43H52.3385C52.6158 28.43 52.8195 28.3953 52.9495 28.326C53.0795 28.2567 53.1965 28.0833 53.3005 27.806L53.5865 27.078C53.6038 27.026 53.6125 26.9913 53.6125 26.974C53.6125 26.9393 53.6038 26.896 53.5865 26.844L50.9605 19.954L50.9345 19.876C50.9345 19.798 50.9822 19.759 51.0775 19.759H52.2995C52.3948 19.759 52.4555 19.8023 52.4815 19.889L54.2625 24.881C54.2885 24.959 54.3232 24.998 54.3665 24.998C54.4185 24.998 54.4575 24.959 54.4835 24.881L56.1215 19.902C56.1475 19.8067 56.2125 19.759 56.3165 19.759H57.4995C57.5602 19.759 57.6035 19.7763 57.6295 19.811C57.6555 19.8457 57.6598 19.8933 57.6425 19.954L54.6915 28.144C54.4835 28.7247 54.2365 29.1233 53.9505 29.34C53.6645 29.5653 53.2615 29.678 52.7415 29.678H51.7665ZM58.9508 27C58.8382 27 58.7818 26.9437 58.7818 26.831V19.928C58.7818 19.8153 58.8382 19.759 58.9508 19.759H60.0428C60.1555 19.759 60.2118 19.8153 60.2118 19.928V26.831C60.2118 26.9437 60.1555 27 60.0428 27H58.9508ZM59.4968 18.745C59.2282 18.745 58.9985 18.6583 58.8078 18.485C58.6258 18.3117 58.5348 18.095 58.5348 17.835C58.5348 17.575 58.6258 17.3583 58.8078 17.185C58.9985 17.0117 59.2282 16.925 59.4968 16.925C59.7655 16.925 59.9908 17.0117 60.1728 17.185C60.3635 17.3583 60.4588 17.575 60.4588 17.835C60.4588 18.095 60.3635 18.3117 60.1728 18.485C59.9908 18.6583 59.7655 18.745 59.4968 18.745ZM62.0993 27C61.9866 27 61.9303 26.9437 61.9303 26.831V19.928C61.9303 19.8153 61.9866 19.759 62.0993 19.759H63.1913C63.3039 19.759 63.3603 19.8153 63.3603 19.928V20.461C63.3603 20.5563 63.3863 20.604 63.4383 20.604C63.4816 20.604 63.5206 20.578 63.5553 20.526C63.8413 20.1967 64.1316 19.9627 64.4263 19.824C64.7296 19.6853 65.0589 19.616 65.4143 19.616C66.4976 19.616 67.2299 20.006 67.6113 20.786C67.7586 21.072 67.8496 21.3667 67.8843 21.67C67.9189 21.9647 67.9363 22.32 67.9363 22.736V26.831C67.9363 26.9437 67.8799 27 67.7673 27H66.6753C66.5626 27 66.5063 26.9437 66.5063 26.831V22.723C66.5063 21.9863 66.3806 21.475 66.1293 21.189C65.8953 20.9463 65.5573 20.825 65.1153 20.825C64.5866 20.825 64.1793 20.9897 63.8933 21.319C63.7026 21.527 63.5639 21.8087 63.4773 22.164C63.3993 22.5193 63.3603 23.0003 63.3603 23.607V26.831C63.3603 26.9437 63.3039 27 63.1913 27H62.0993ZM72.8612 29.808C72.0466 29.808 71.3402 29.6433 70.7422 29.314C70.1442 28.9847 69.7629 28.4387 69.5982 27.676V27.637C69.5982 27.5417 69.6502 27.494 69.7542 27.494H70.8592C70.9632 27.494 71.0282 27.5373 71.0542 27.624C71.1842 27.9707 71.3966 28.2263 71.6912 28.391C71.9859 28.5557 72.3716 28.638 72.8482 28.638C73.4982 28.638 73.9792 28.4907 74.2912 28.196C74.6032 27.9013 74.7592 27.4853 74.7592 26.948V26.207C74.7592 26.1203 74.7332 26.077 74.6812 26.077C74.6466 26.077 74.6076 26.0987 74.5642 26.142C74.2782 26.48 73.9749 26.7183 73.6542 26.857C73.3422 26.9957 72.9739 27.065 72.5492 27.065C71.9166 27.065 71.3576 26.909 70.8722 26.597C70.3869 26.2763 70.0099 25.8343 69.7412 25.271C69.4812 24.7077 69.3512 24.0707 69.3512 23.36C69.3512 22.632 69.4812 21.9863 69.7412 21.423C70.0099 20.851 70.3869 20.409 70.8722 20.097C71.3576 19.7763 71.9166 19.616 72.5492 19.616C72.9739 19.616 73.3422 19.6853 73.6542 19.824C73.9749 19.9627 74.2782 20.1967 74.5642 20.526C74.5989 20.578 74.6379 20.604 74.6812 20.604C74.7332 20.604 74.7592 20.565 74.7592 20.487V19.928C74.7592 19.8153 74.8156 19.759 74.9282 19.759H76.0202C76.1329 19.759 76.1892 19.8153 76.1892 19.928V26.636C76.1892 27.78 75.8946 28.5947 75.3052 29.08C74.7159 29.5653 73.9012 29.808 72.8612 29.808ZM72.8092 25.817C73.2079 25.817 73.5632 25.713 73.8752 25.505C74.1959 25.2883 74.4429 24.9937 74.6162 24.621C74.7982 24.2397 74.8892 23.8107 74.8892 23.334C74.8892 22.866 74.7982 22.4457 74.6162 22.073C74.4429 21.6917 74.1959 21.397 73.8752 21.189C73.5632 20.9723 73.2079 20.864 72.8092 20.864C72.2026 20.864 71.7129 21.098 71.3402 21.566C70.9676 22.034 70.7812 22.6233 70.7812 23.334C70.7812 24.0533 70.9632 24.647 71.3272 25.115C71.6999 25.583 72.1939 25.817 72.8092 25.817ZM83.769 27C83.2057 27 82.781 26.87 82.495 26.61C82.209 26.35 82.066 25.9123 82.066 25.297V21.124C82.066 21.0113 82.0097 20.955 81.897 20.955H81.117C81.0044 20.955 80.948 20.8987 80.948 20.786V19.928C80.948 19.8153 81.0044 19.759 81.117 19.759H81.897C82.0097 19.759 82.066 19.7027 82.066 19.59V17.25C82.066 17.1373 82.1224 17.081 82.235 17.081H83.327C83.4397 17.081 83.496 17.1373 83.496 17.25V19.59C83.496 19.7027 83.5524 19.759 83.665 19.759H84.835C84.9477 19.759 85.004 19.8153 85.004 19.928V20.786C85.004 20.8987 84.9477 20.955 84.835 20.955H83.665C83.5524 20.955 83.496 21.0113 83.496 21.124V24.92C83.496 25.2233 83.5394 25.4443 83.626 25.583C83.7127 25.7217 83.912 25.791 84.224 25.791H84.822C84.9347 25.791 84.991 25.8473 84.991 25.96V26.831C84.991 26.9437 84.9347 27 84.822 27H83.769ZM89.4809 27.143C88.7789 27.143 88.1506 26.9827 87.5959 26.662C87.0499 26.3413 86.6209 25.895 86.3089 25.323C86.0056 24.7423 85.8539 24.0837 85.8539 23.347C85.8539 22.6277 86.0056 21.9863 86.3089 21.423C86.6209 20.8597 87.0499 20.4177 87.5959 20.097C88.1506 19.7763 88.7789 19.616 89.4809 19.616C90.1829 19.616 90.8069 19.7763 91.3529 20.097C91.9076 20.4177 92.3366 20.8597 92.6399 21.423C92.9519 21.9863 93.1079 22.6277 93.1079 23.347C93.1079 24.075 92.9563 24.7293 92.6529 25.31C92.3496 25.882 91.9206 26.3327 91.3659 26.662C90.8199 26.9827 90.1916 27.143 89.4809 27.143ZM89.4809 25.895C89.8969 25.895 90.2696 25.7867 90.5989 25.57C90.9283 25.3533 91.1839 25.05 91.3659 24.66C91.5566 24.27 91.6519 23.8323 91.6519 23.347C91.6519 22.879 91.5566 22.4587 91.3659 22.086C91.1839 21.7047 90.9283 21.4057 90.5989 21.189C90.2696 20.9723 89.8969 20.864 89.4809 20.864C89.0649 20.864 88.6923 20.9723 88.3629 21.189C88.0336 21.397 87.7736 21.6917 87.5829 22.073C87.4009 22.4457 87.3099 22.8703 87.3099 23.347C87.3099 23.841 87.4009 24.283 87.5829 24.673C87.7736 25.0543 88.0336 25.3533 88.3629 25.57C88.6923 25.7867 89.0649 25.895 89.4809 25.895ZM101.128 27.143C100.262 27.143 99.5249 26.9437 98.9182 26.545C98.3115 26.1377 97.9302 25.557 97.7742 24.803V24.764C97.7742 24.6687 97.8262 24.621 97.9302 24.621H99.0482C99.1435 24.621 99.2042 24.6687 99.2302 24.764C99.3515 25.1453 99.5725 25.44 99.8932 25.648C100.214 25.856 100.626 25.96 101.128 25.96C101.57 25.96 101.926 25.8777 102.194 25.713C102.463 25.5397 102.597 25.297 102.597 24.985C102.597 24.7423 102.515 24.5517 102.35 24.413C102.186 24.2657 101.978 24.153 101.726 24.075C101.475 23.997 101.141 23.9147 100.725 23.828C100.153 23.7153 99.6895 23.5983 99.3342 23.477C98.9789 23.3557 98.6755 23.1563 98.4242 22.879C98.1729 22.6017 98.0472 22.2203 98.0472 21.735C98.0472 21.0503 98.3029 20.526 98.8142 20.162C99.3255 19.798 99.9755 19.616 100.764 19.616C101.544 19.616 102.199 19.811 102.727 20.201C103.265 20.5823 103.616 21.1197 103.78 21.813L103.793 21.865C103.785 21.9517 103.728 21.995 103.624 21.995H102.623C102.528 21.995 102.467 21.9473 102.441 21.852C102.311 21.4967 102.099 21.2323 101.804 21.059C101.518 20.877 101.172 20.786 100.764 20.786C100.348 20.786 100.023 20.864 99.7892 21.02C99.5552 21.176 99.4382 21.3883 99.4382 21.657C99.4382 21.8737 99.5162 22.047 99.6722 22.177C99.8282 22.2983 100.019 22.3937 100.244 22.463C100.478 22.5323 100.803 22.606 101.219 22.684C101.809 22.7967 102.29 22.918 102.662 23.048C103.035 23.1693 103.351 23.3773 103.611 23.672C103.88 23.958 104.014 24.3567 104.014 24.868C104.014 25.5613 103.759 26.116 103.247 26.532C102.736 26.9393 102.03 27.143 101.128 27.143ZM107.687 27C107.124 27 106.699 26.87 106.413 26.61C106.127 26.35 105.984 25.9123 105.984 25.297V21.124C105.984 21.0113 105.928 20.955 105.815 20.955H105.035C104.922 20.955 104.866 20.8987 104.866 20.786V19.928C104.866 19.8153 104.922 19.759 105.035 19.759H105.815C105.928 19.759 105.984 19.7027 105.984 19.59V17.25C105.984 17.1373 106.04 17.081 106.153 17.081H107.245C107.358 17.081 107.414 17.1373 107.414 17.25V19.59C107.414 19.7027 107.47 19.759 107.583 19.759H108.753C108.866 19.759 108.922 19.8153 108.922 19.928V20.786C108.922 20.8987 108.866 20.955 108.753 20.955H107.583C107.47 20.955 107.414 21.0113 107.414 21.124V24.92C107.414 25.2233 107.457 25.4443 107.544 25.583C107.631 25.7217 107.83 25.791 108.142 25.791H108.74C108.853 25.791 108.909 25.8473 108.909 25.96V26.831C108.909 26.9437 108.853 27 108.74 27H107.687ZM112.303 27.143C111.592 27.143 111.02 26.9567 110.587 26.584C110.154 26.2027 109.937 25.687 109.937 25.037C109.937 24.3697 110.197 23.8453 110.717 23.464C111.107 23.178 111.666 22.9657 112.394 22.827L114.604 22.398C114.647 22.3893 114.682 22.372 114.708 22.346C114.743 22.3113 114.756 22.268 114.747 22.216C114.704 21.7653 114.574 21.4317 114.357 21.215C114.071 20.929 113.69 20.786 113.213 20.786C112.849 20.786 112.524 20.8813 112.238 21.072C111.961 21.2627 111.774 21.5227 111.679 21.852C111.644 21.956 111.579 22.008 111.484 22.008H110.405C110.284 22.008 110.232 21.943 110.249 21.813C110.405 21.111 110.76 20.5693 111.315 20.188C111.87 19.8067 112.507 19.616 113.226 19.616C113.651 19.616 114.049 19.681 114.422 19.811C114.803 19.9323 115.124 20.1143 115.384 20.357C115.731 20.6777 115.947 21.0547 116.034 21.488C116.129 21.9213 116.177 22.4197 116.177 22.983V26.831C116.177 26.9437 116.121 27 116.008 27H114.916C114.803 27 114.747 26.9437 114.747 26.831V26.272C114.747 26.1767 114.725 26.129 114.682 26.129C114.647 26.129 114.613 26.1507 114.578 26.194C114.387 26.428 114.192 26.6057 113.993 26.727C113.56 27.0043 112.996 27.143 112.303 27.143ZM112.589 25.96C112.97 25.96 113.317 25.882 113.629 25.726C114.028 25.5267 114.314 25.2623 114.487 24.933C114.66 24.595 114.756 24.1703 114.773 23.659C114.773 23.5983 114.756 23.555 114.721 23.529C114.686 23.4943 114.643 23.4857 114.591 23.503L112.732 23.867C112.229 23.971 111.865 24.127 111.64 24.335C111.458 24.517 111.367 24.738 111.367 24.998C111.367 25.3013 111.475 25.5397 111.692 25.713C111.917 25.8777 112.216 25.96 112.589 25.96ZM118.049 29.678C117.936 29.678 117.88 29.6217 117.88 29.509V28.599C117.88 28.4863 117.936 28.43 118.049 28.43H118.621C118.898 28.43 119.102 28.3953 119.232 28.326C119.362 28.2567 119.479 28.0833 119.583 27.806L119.869 27.078C119.886 27.026 119.895 26.9913 119.895 26.974C119.895 26.9393 119.886 26.896 119.869 26.844L117.243 19.954L117.217 19.876C117.217 19.798 117.264 19.759 117.36 19.759H118.582C118.677 19.759 118.738 19.8023 118.764 19.889L120.545 24.881C120.571 24.959 120.605 24.998 120.649 24.998C120.701 24.998 120.74 24.959 120.766 24.881L122.404 19.902C122.43 19.8067 122.495 19.759 122.599 19.759H123.782C123.842 19.759 123.886 19.7763 123.912 19.811C123.938 19.8457 123.942 19.8933 123.925 19.954L120.974 28.144C120.766 28.7247 120.519 29.1233 120.233 29.34C119.947 29.5653 119.544 29.678 119.024 29.678H118.049ZM131.959 27.143C131.257 27.143 130.629 26.9827 130.074 26.662C129.528 26.3413 129.099 25.895 128.787 25.323C128.484 24.7423 128.332 24.0837 128.332 23.347C128.332 22.6277 128.484 21.9863 128.787 21.423C129.099 20.8597 129.528 20.4177 130.074 20.097C130.629 19.7763 131.257 19.616 131.959 19.616C132.661 19.616 133.285 19.7763 133.831 20.097C134.386 20.4177 134.815 20.8597 135.118 21.423C135.43 21.9863 135.586 22.6277 135.586 23.347C135.586 24.075 135.435 24.7293 135.131 25.31C134.828 25.882 134.399 26.3327 133.844 26.662C133.298 26.9827 132.67 27.143 131.959 27.143ZM131.959 25.895C132.375 25.895 132.748 25.7867 133.077 25.57C133.407 25.3533 133.662 25.05 133.844 24.66C134.035 24.27 134.13 23.8323 134.13 23.347C134.13 22.879 134.035 22.4587 133.844 22.086C133.662 21.7047 133.407 21.4057 133.077 21.189C132.748 20.9723 132.375 20.864 131.959 20.864C131.543 20.864 131.171 20.9723 130.841 21.189C130.512 21.397 130.252 21.6917 130.061 22.073C129.879 22.4457 129.788 22.8703 129.788 23.347C129.788 23.841 129.879 24.283 130.061 24.673C130.252 25.0543 130.512 25.3533 130.841 25.57C131.171 25.7867 131.543 25.895 131.959 25.895ZM139.493 27.143C138.436 27.143 137.704 26.7487 137.296 25.96C137.184 25.7347 137.101 25.4747 137.049 25.18C137.006 24.8853 136.984 24.4997 136.984 24.023V19.928C136.984 19.8153 137.041 19.759 137.153 19.759H138.245C138.358 19.759 138.414 19.8153 138.414 19.928V24.036C138.414 24.7727 138.54 25.284 138.791 25.57C139.017 25.8127 139.355 25.934 139.805 25.934C140.325 25.934 140.728 25.7693 141.014 25.44C141.205 25.232 141.344 24.9503 141.43 24.595C141.517 24.2397 141.56 23.7587 141.56 23.152V19.928C141.56 19.8153 141.617 19.759 141.729 19.759H142.821C142.934 19.759 142.99 19.8153 142.99 19.928V26.831C142.99 26.9437 142.934 27 142.821 27H141.729C141.617 27 141.56 26.9437 141.56 26.831V26.298C141.56 26.2113 141.53 26.168 141.469 26.168C141.435 26.168 141.391 26.1983 141.339 26.259C141.062 26.571 140.776 26.7963 140.481 26.935C140.187 27.0737 139.857 27.143 139.493 27.143ZM146.992 27C146.428 27 146.004 26.87 145.718 26.61C145.432 26.35 145.289 25.9123 145.289 25.297V21.124C145.289 21.0113 145.232 20.955 145.12 20.955H144.34C144.227 20.955 144.171 20.8987 144.171 20.786V19.928C144.171 19.8153 144.227 19.759 144.34 19.759H145.12C145.232 19.759 145.289 19.7027 145.289 19.59V17.25C145.289 17.1373 145.345 17.081 145.458 17.081H146.55C146.662 17.081 146.719 17.1373 146.719 17.25V19.59C146.719 19.7027 146.775 19.759 146.888 19.759H148.058C148.17 19.759 148.227 19.8153 148.227 19.928V20.786C148.227 20.8987 148.17 20.955 148.058 20.955H146.888C146.775 20.955 146.719 21.0113 146.719 21.124V24.92C146.719 25.2233 146.762 25.4443 146.849 25.583C146.935 25.7217 147.135 25.791 147.447 25.791H148.045C148.157 25.791 148.214 25.8473 148.214 25.96V26.831C148.214 26.9437 148.157 27 148.045 27H146.992ZM156.436 27.143C155.734 27.143 155.106 26.9827 154.551 26.662C154.005 26.3413 153.576 25.895 153.264 25.323C152.961 24.7423 152.809 24.0837 152.809 23.347C152.809 22.6277 152.961 21.9863 153.264 21.423C153.576 20.8597 154.005 20.4177 154.551 20.097C155.106 19.7763 155.734 19.616 156.436 19.616C157.138 19.616 157.762 19.7763 158.308 20.097C158.863 20.4177 159.292 20.8597 159.595 21.423C159.907 21.9863 160.063 22.6277 160.063 23.347C160.063 24.075 159.911 24.7293 159.608 25.31C159.305 25.882 158.876 26.3327 158.321 26.662C157.775 26.9827 157.147 27.143 156.436 27.143ZM156.436 25.895C156.852 25.895 157.225 25.7867 157.554 25.57C157.883 25.3533 158.139 25.05 158.321 24.66C158.512 24.27 158.607 23.8323 158.607 23.347C158.607 22.879 158.512 22.4587 158.321 22.086C158.139 21.7047 157.883 21.4057 157.554 21.189C157.225 20.9723 156.852 20.864 156.436 20.864C156.02 20.864 155.647 20.9723 155.318 21.189C154.989 21.397 154.729 21.6917 154.538 22.073C154.356 22.4457 154.265 22.8703 154.265 23.347C154.265 23.841 154.356 24.283 154.538 24.673C154.729 25.0543 154.989 25.3533 155.318 25.57C155.647 25.7867 156.02 25.895 156.436 25.895ZM162.14 27C162.027 27 161.971 26.9437 161.971 26.831V21.111C161.971 20.9983 161.915 20.942 161.802 20.942H160.996C160.883 20.942 160.827 20.8857 160.827 20.773V19.928C160.827 19.8153 160.883 19.759 160.996 19.759H161.802C161.915 19.759 161.971 19.7027 161.971 19.59V18.992C161.971 18.368 162.136 17.8957 162.465 17.575C162.794 17.2457 163.275 17.081 163.908 17.081H164.753C164.866 17.081 164.922 17.1373 164.922 17.25V18.095C164.922 18.2077 164.866 18.264 164.753 18.264H164.246C163.969 18.264 163.761 18.3377 163.622 18.485C163.483 18.6323 163.414 18.8663 163.414 19.187V19.59C163.414 19.7027 163.47 19.759 163.583 19.759H164.753C164.866 19.759 164.922 19.8153 164.922 19.928V20.773C164.922 20.8857 164.866 20.942 164.753 20.942H163.583C163.47 20.942 163.414 20.9983 163.414 21.111V26.831C163.414 26.9437 163.358 27 163.245 27H162.14ZM169.846 29.678C169.733 29.678 169.677 29.6217 169.677 29.509V28.599C169.677 28.4863 169.733 28.43 169.846 28.43H170.418C170.695 28.43 170.899 28.3953 171.029 28.326C171.159 28.2567 171.276 28.0833 171.38 27.806L171.666 27.078C171.683 27.026 171.692 26.9913 171.692 26.974C171.692 26.9393 171.683 26.896 171.666 26.844L169.04 19.954L169.014 19.876C169.014 19.798 169.061 19.759 169.157 19.759H170.379C170.474 19.759 170.535 19.8023 170.561 19.889L172.342 24.881C172.368 24.959 172.402 24.998 172.446 24.998C172.498 24.998 172.537 24.959 172.563 24.881L174.201 19.902C174.227 19.8067 174.292 19.759 174.396 19.759H175.579C175.639 19.759 175.683 19.7763 175.709 19.811C175.735 19.8457 175.739 19.8933 175.722 19.954L172.771 28.144C172.563 28.7247 172.316 29.1233 172.03 29.34C171.744 29.5653 171.341 29.678 170.821 29.678H169.846ZM180.189 27.143C179.487 27.143 178.859 26.9827 178.304 26.662C177.758 26.3413 177.329 25.895 177.017 25.323C176.714 24.7423 176.562 24.0837 176.562 23.347C176.562 22.6277 176.714 21.9863 177.017 21.423C177.329 20.8597 177.758 20.4177 178.304 20.097C178.859 19.7763 179.487 19.616 180.189 19.616C180.891 19.616 181.515 19.7763 182.061 20.097C182.616 20.4177 183.045 20.8597 183.348 21.423C183.66 21.9863 183.816 22.6277 183.816 23.347C183.816 24.075 183.664 24.7293 183.361 25.31C183.058 25.882 182.629 26.3327 182.074 26.662C181.528 26.9827 180.9 27.143 180.189 27.143ZM180.189 25.895C180.605 25.895 180.978 25.7867 181.307 25.57C181.636 25.3533 181.892 25.05 182.074 24.66C182.265 24.27 182.36 23.8323 182.36 23.347C182.36 22.879 182.265 22.4587 182.074 22.086C181.892 21.7047 181.636 21.4057 181.307 21.189C180.978 20.9723 180.605 20.864 180.189 20.864C179.773 20.864 179.4 20.9723 179.071 21.189C178.742 21.397 178.482 21.6917 178.291 22.073C178.109 22.4457 178.018 22.8703 178.018 23.347C178.018 23.841 178.109 24.283 178.291 24.673C178.482 25.0543 178.742 25.3533 179.071 25.57C179.4 25.7867 179.773 25.895 180.189 25.895ZM187.723 27.143C186.666 27.143 185.933 26.7487 185.526 25.96C185.413 25.7347 185.331 25.4747 185.279 25.18C185.236 24.8853 185.214 24.4997 185.214 24.023V19.928C185.214 19.8153 185.27 19.759 185.383 19.759H186.475C186.588 19.759 186.644 19.8153 186.644 19.928V24.036C186.644 24.7727 186.77 25.284 187.021 25.57C187.246 25.8127 187.584 25.934 188.035 25.934C188.555 25.934 188.958 25.7693 189.244 25.44C189.435 25.232 189.573 24.9503 189.66 24.595C189.747 24.2397 189.79 23.7587 189.79 23.152V19.928C189.79 19.8153 189.846 19.759 189.959 19.759H191.051C191.164 19.759 191.22 19.8153 191.22 19.928V26.831C191.22 26.9437 191.164 27 191.051 27H189.959C189.846 27 189.79 26.9437 189.79 26.831V26.298C189.79 26.2113 189.76 26.168 189.699 26.168C189.664 26.168 189.621 26.1983 189.569 26.259C189.292 26.571 189.006 26.7963 188.711 26.935C188.416 27.0737 188.087 27.143 187.723 27.143ZM193.102 27C192.99 27 192.933 26.9437 192.933 26.831V19.928C192.933 19.8153 192.99 19.759 193.102 19.759H194.194C194.307 19.759 194.363 19.8153 194.363 19.928V20.383C194.363 20.4783 194.389 20.526 194.441 20.526C194.485 20.526 194.524 20.5 194.558 20.448C194.836 20.1533 195.135 19.941 195.455 19.811C195.776 19.681 196.14 19.616 196.547 19.616C196.66 19.616 196.716 19.6723 196.716 19.785V20.851C196.716 20.9637 196.66 21.02 196.547 21.02H196.326C195.746 21.02 195.295 21.1803 194.974 21.501C194.567 21.891 194.363 22.5323 194.363 23.425V26.831C194.363 26.9437 194.307 27 194.194 27H193.102ZM201.57 27C201.457 27 201.401 26.9437 201.401 26.831V19.928C201.401 19.8153 201.457 19.759 201.57 19.759H202.662C202.775 19.759 202.831 19.8153 202.831 19.928V20.461C202.831 20.5043 202.84 20.539 202.857 20.565C202.874 20.591 202.892 20.604 202.909 20.604C202.944 20.604 202.983 20.5823 203.026 20.539C203.321 20.2097 203.615 19.9757 203.91 19.837C204.213 19.6897 204.538 19.616 204.885 19.616C205.327 19.616 205.713 19.707 206.042 19.889C206.38 20.071 206.623 20.331 206.77 20.669C206.796 20.7297 206.826 20.76 206.861 20.76C206.896 20.76 206.93 20.734 206.965 20.682C207.407 19.9713 208.1 19.616 209.045 19.616C209.851 19.616 210.453 19.8457 210.852 20.305C211.251 20.7643 211.45 21.4187 211.45 22.268V26.831C211.45 26.9437 211.394 27 211.281 27H210.189C210.076 27 210.02 26.9437 210.02 26.831V22.502C210.02 21.9473 209.907 21.5313 209.682 21.254C209.457 20.968 209.136 20.825 208.72 20.825C208.295 20.825 207.953 20.9637 207.693 21.241C207.485 21.4663 207.338 21.7567 207.251 22.112C207.173 22.4587 207.134 22.905 207.134 23.451V26.831C207.134 26.9437 207.078 27 206.965 27H205.886C205.773 27 205.717 26.9437 205.717 26.831V22.502C205.717 21.9647 205.6 21.553 205.366 21.267C205.132 20.9723 204.807 20.825 204.391 20.825C204.183 20.825 203.992 20.864 203.819 20.942C203.646 21.02 203.498 21.1327 203.377 21.28C203.186 21.488 203.048 21.761 202.961 22.099C202.874 22.437 202.831 22.8877 202.831 23.451V26.831C202.831 26.9437 202.775 27 202.662 27H201.57ZM216.421 27.143C215.719 27.143 215.095 26.9827 214.549 26.662C214.003 26.3327 213.578 25.8863 213.275 25.323C212.971 24.751 212.82 24.114 212.82 23.412C212.82 22.7533 212.954 22.1337 213.223 21.553C213.5 20.9723 213.907 20.5043 214.445 20.149C214.982 19.7937 215.628 19.616 216.382 19.616C217.023 19.616 217.612 19.7547 218.15 20.032C218.696 20.3093 219.133 20.7253 219.463 21.28C219.792 21.826 219.957 22.4933 219.957 23.282V23.503C219.957 23.6157 219.9 23.672 219.788 23.672H214.445C214.393 23.672 214.354 23.6893 214.328 23.724C214.302 23.75 214.293 23.789 214.302 23.841C214.336 24.049 214.397 24.2527 214.484 24.452C214.657 24.894 214.917 25.245 215.264 25.505C215.61 25.765 216.005 25.895 216.447 25.895C216.88 25.895 217.253 25.791 217.565 25.583C217.885 25.3663 218.128 25.0847 218.293 24.738C218.327 24.66 218.388 24.621 218.475 24.621H219.632C219.692 24.621 219.736 24.634 219.762 24.66C219.788 24.686 219.796 24.7207 219.788 24.764C219.536 25.4747 219.125 26.051 218.553 26.493C217.989 26.9263 217.279 27.143 216.421 27.143ZM218.28 22.515C218.34 22.515 218.384 22.502 218.41 22.476C218.436 22.4413 218.444 22.3937 218.436 22.333C218.384 22.1163 218.323 21.9473 218.254 21.826C218.08 21.4967 217.829 21.2453 217.5 21.072C217.179 20.89 216.824 20.799 216.434 20.799C216.026 20.799 215.667 20.89 215.355 21.072C215.043 21.2453 214.796 21.4967 214.614 21.826C214.518 21.9907 214.449 22.1597 214.406 22.333C214.406 22.3417 214.401 22.3503 214.393 22.359C214.393 22.3677 214.397 22.3763 214.406 22.385C214.406 22.4717 214.458 22.515 214.562 22.515H218.28ZM224.4 27.143C223.533 27.143 222.796 26.9437 222.19 26.545C221.583 26.1377 221.202 25.557 221.046 24.803V24.764C221.046 24.6687 221.098 24.621 221.202 24.621H222.32C222.415 24.621 222.476 24.6687 222.502 24.764C222.623 25.1453 222.844 25.44 223.165 25.648C223.485 25.856 223.897 25.96 224.4 25.96C224.842 25.96 225.197 25.8777 225.466 25.713C225.734 25.5397 225.869 25.297 225.869 24.985C225.869 24.7423 225.786 24.5517 225.622 24.413C225.457 24.2657 225.249 24.153 224.998 24.075C224.746 23.997 224.413 23.9147 223.997 23.828C223.425 23.7153 222.961 23.5983 222.606 23.477C222.25 23.3557 221.947 23.1563 221.696 22.879C221.444 22.6017 221.319 22.2203 221.319 21.735C221.319 21.0503 221.574 20.526 222.086 20.162C222.597 19.798 223.247 19.616 224.036 19.616C224.816 19.616 225.47 19.811 225.999 20.201C226.536 20.5823 226.887 21.1197 227.052 21.813L227.065 21.865C227.056 21.9517 227 21.995 226.896 21.995H225.895C225.799 21.995 225.739 21.9473 225.713 21.852C225.583 21.4967 225.37 21.2323 225.076 21.059C224.79 20.877 224.443 20.786 224.036 20.786C223.62 20.786 223.295 20.864 223.061 21.02C222.827 21.176 222.71 21.3883 222.71 21.657C222.71 21.8737 222.788 22.047 222.944 22.177C223.1 22.2983 223.29 22.3937 223.516 22.463C223.75 22.5323 224.075 22.606 224.491 22.684C225.08 22.7967 225.561 22.918 225.934 23.048C226.306 23.1693 226.623 23.3773 226.883 23.672C227.151 23.958 227.286 24.3567 227.286 24.868C227.286 25.5613 227.03 26.116 226.519 26.532C226.007 26.9393 225.301 27.143 224.4 27.143ZM231.763 27.143C230.896 27.143 230.16 26.9437 229.553 26.545C228.946 26.1377 228.565 25.557 228.409 24.803V24.764C228.409 24.6687 228.461 24.621 228.565 24.621H229.683C229.778 24.621 229.839 24.6687 229.865 24.764C229.986 25.1453 230.207 25.44 230.528 25.648C230.849 25.856 231.26 25.96 231.763 25.96C232.205 25.96 232.56 25.8777 232.829 25.713C233.098 25.5397 233.232 25.297 233.232 24.985C233.232 24.7423 233.15 24.5517 232.985 24.413C232.82 24.2657 232.612 24.153 232.361 24.075C232.11 23.997 231.776 23.9147 231.36 23.828C230.788 23.7153 230.324 23.5983 229.969 23.477C229.614 23.3557 229.31 23.1563 229.059 22.879C228.808 22.6017 228.682 22.2203 228.682 21.735C228.682 21.0503 228.938 20.526 229.449 20.162C229.96 19.798 230.61 19.616 231.399 19.616C232.179 19.616 232.833 19.811 233.362 20.201C233.899 20.5823 234.25 21.1197 234.415 21.813L234.428 21.865C234.419 21.9517 234.363 21.995 234.259 21.995H233.258C233.163 21.995 233.102 21.9473 233.076 21.852C232.946 21.4967 232.734 21.2323 232.439 21.059C232.153 20.877 231.806 20.786 231.399 20.786C230.983 20.786 230.658 20.864 230.424 21.02C230.19 21.176 230.073 21.3883 230.073 21.657C230.073 21.8737 230.151 22.047 230.307 22.177C230.463 22.2983 230.654 22.3937 230.879 22.463C231.113 22.5323 231.438 22.606 231.854 22.684C232.443 22.7967 232.924 22.918 233.297 23.048C233.67 23.1693 233.986 23.3773 234.246 23.672C234.515 23.958 234.649 24.3567 234.649 24.868C234.649 25.5613 234.393 26.116 233.882 26.532C233.371 26.9393 232.664 27.143 231.763 27.143ZM236.747 27.143C236.496 27.143 236.279 27.052 236.097 26.87C235.915 26.688 235.824 26.4713 235.824 26.22C235.824 25.9773 235.915 25.7693 236.097 25.596C236.279 25.4227 236.496 25.336 236.747 25.336C236.99 25.336 237.198 25.4227 237.371 25.596C237.545 25.7693 237.631 25.9773 237.631 26.22C237.631 26.4713 237.545 26.688 237.371 26.87C237.198 27.052 236.99 27.143 236.747 27.143ZM15.646 47C15.5593 47 15.4943 46.9523 15.451 46.857L12.773 37.263V37.211C12.773 37.1243 12.825 37.081 12.929 37.081H14.177C14.281 37.081 14.346 37.1287 14.372 37.224L16.478 44.868C16.504 44.9547 16.5387 44.998 16.582 44.998C16.5993 44.998 16.6167 44.985 16.634 44.959C16.66 44.933 16.6773 44.9027 16.686 44.868L18.701 37.224C18.727 37.1287 18.7877 37.081 18.883 37.081H20.339C20.4343 37.081 20.495 37.1287 20.521 37.224L22.536 44.881C22.562 44.9677 22.5967 45.011 22.64 45.011C22.6573 45.011 22.6747 44.998 22.692 44.972C22.718 44.946 22.7353 44.9157 22.744 44.881L24.85 37.224C24.876 37.1287 24.9367 37.081 25.032 37.081H26.293C26.3537 37.081 26.397 37.0983 26.423 37.133C26.449 37.159 26.4533 37.2023 26.436 37.263L23.758 46.857C23.7147 46.9523 23.6497 47 23.563 47H21.795C21.691 47 21.626 46.9523 21.6 46.857L19.702 39.655C19.6933 39.577 19.663 39.538 19.611 39.538C19.5677 39.538 19.533 39.577 19.507 39.655L17.609 46.857C17.583 46.9523 17.518 47 17.414 47H15.646ZM27.7461 47C27.6334 47 27.5771 46.9437 27.5771 46.831V37.25C27.5771 37.1373 27.6334 37.081 27.7461 37.081H28.8381C28.9507 37.081 29.0071 37.1373 29.0071 37.25V40.461C29.0071 40.5563 29.0331 40.604 29.0851 40.604C29.1284 40.604 29.1674 40.578 29.2021 40.526C29.4967 40.1967 29.7871 39.9627 30.0731 39.824C30.3677 39.6853 30.6971 39.616 31.0611 39.616C32.1271 39.616 32.8594 40.006 33.2581 40.786C33.4054 41.072 33.4964 41.3667 33.5311 41.67C33.5657 41.9647 33.5831 42.32 33.5831 42.736V46.831C33.5831 46.9437 33.5267 47 33.4141 47H32.3221C32.2094 47 32.1531 46.9437 32.1531 46.831V42.723C32.1531 42.3417 32.1227 42.0297 32.0621 41.787C32.0014 41.5357 31.9017 41.3363 31.7631 41.189C31.5464 40.9463 31.2084 40.825 30.7491 40.825C30.2291 40.825 29.8261 40.9897 29.5401 41.319C29.3494 41.527 29.2107 41.8087 29.1241 42.164C29.0461 42.5193 29.0071 43.0003 29.0071 43.607V46.831C29.0071 46.9437 28.9507 47 28.8381 47H27.7461ZM37.3117 47.143C36.6011 47.143 36.0291 46.9567 35.5957 46.584C35.1624 46.2027 34.9457 45.687 34.9457 45.037C34.9457 44.3697 35.2057 43.8453 35.7257 43.464C36.1157 43.178 36.6747 42.9657 37.4027 42.827L39.6127 42.398C39.6561 42.3893 39.6907 42.372 39.7167 42.346C39.7514 42.3113 39.7644 42.268 39.7557 42.216C39.7124 41.7653 39.5824 41.4317 39.3657 41.215C39.0797 40.929 38.6984 40.786 38.2217 40.786C37.8577 40.786 37.5327 40.8813 37.2467 41.072C36.9694 41.2627 36.7831 41.5227 36.6877 41.852C36.6531 41.956 36.5881 42.008 36.4927 42.008H35.4137C35.2924 42.008 35.2404 41.943 35.2577 41.813C35.4137 41.111 35.7691 40.5693 36.3237 40.188C36.8784 39.8067 37.5154 39.616 38.2347 39.616C38.6594 39.616 39.0581 39.681 39.4307 39.811C39.8121 39.9323 40.1327 40.1143 40.3927 40.357C40.7394 40.6777 40.9561 41.0547 41.0427 41.488C41.1381 41.9213 41.1857 42.4197 41.1857 42.983V46.831C41.1857 46.9437 41.1294 47 41.0167 47H39.9247C39.8121 47 39.7557 46.9437 39.7557 46.831V46.272C39.7557 46.1767 39.7341 46.129 39.6907 46.129C39.6561 46.129 39.6214 46.1507 39.5867 46.194C39.3961 46.428 39.2011 46.6057 39.0017 46.727C38.5684 47.0043 38.0051 47.143 37.3117 47.143ZM37.5977 45.96C37.9791 45.96 38.3257 45.882 38.6377 45.726C39.0364 45.5267 39.3224 45.2623 39.4957 44.933C39.6691 44.595 39.7644 44.1703 39.7817 43.659C39.7817 43.5983 39.7644 43.555 39.7297 43.529C39.6951 43.4943 39.6517 43.4857 39.5997 43.503L37.7407 43.867C37.2381 43.971 36.8741 44.127 36.6487 44.335C36.4667 44.517 36.3757 44.738 36.3757 44.998C36.3757 45.3013 36.4841 45.5397 36.7007 45.713C36.9261 45.8777 37.2251 45.96 37.5977 45.96ZM45.1245 47C44.5612 47 44.1365 46.87 43.8505 46.61C43.5645 46.35 43.4215 45.9123 43.4215 45.297V41.124C43.4215 41.0113 43.3652 40.955 43.2525 40.955H42.4725C42.3598 40.955 42.3035 40.8987 42.3035 40.786V39.928C42.3035 39.8153 42.3598 39.759 42.4725 39.759H43.2525C43.3652 39.759 43.4215 39.7027 43.4215 39.59V37.25C43.4215 37.1373 43.4778 37.081 43.5905 37.081H44.6825C44.7952 37.081 44.8515 37.1373 44.8515 37.25V39.59C44.8515 39.7027 44.9078 39.759 45.0205 39.759H46.1905C46.3032 39.759 46.3595 39.8153 46.3595 39.928V40.786C46.3595 40.8987 46.3032 40.955 46.1905 40.955H45.0205C44.9078 40.955 44.8515 41.0113 44.8515 41.124V44.92C44.8515 45.2233 44.8948 45.4443 44.9815 45.583C45.0682 45.7217 45.2675 45.791 45.5795 45.791H46.1775C46.2902 45.791 46.3465 45.8473 46.3465 45.96V46.831C46.3465 46.9437 46.2902 47 46.1775 47H45.1245ZM54.1788 47.143C53.5461 47.143 52.9871 46.987 52.5018 46.675C52.0165 46.3543 51.6395 45.908 51.3708 45.336C51.1108 44.764 50.9808 44.114 50.9808 43.386C50.9808 42.6493 51.1108 41.995 51.3708 41.423C51.6395 40.851 52.0165 40.409 52.5018 40.097C52.9871 39.7763 53.5461 39.616 54.1788 39.616C54.6035 39.616 54.9718 39.6853 55.2838 39.824C55.6045 39.954 55.9078 40.188 56.1938 40.526C56.2371 40.578 56.2761 40.604 56.3108 40.604C56.3628 40.604 56.3888 40.5563 56.3888 40.461V37.25C56.3888 37.1373 56.4451 37.081 56.5578 37.081H57.6498C57.7625 37.081 57.8188 37.1373 57.8188 37.25V46.831C57.8188 46.9437 57.7625 47 57.6498 47H56.5578C56.4451 47 56.3888 46.9437 56.3888 46.831V46.272C56.3888 46.194 56.3628 46.155 56.3108 46.155C56.2761 46.155 56.2371 46.1767 56.1938 46.22C55.8991 46.558 55.5958 46.7963 55.2838 46.935C54.9718 47.0737 54.6035 47.143 54.1788 47.143ZM54.4388 45.895C54.8375 45.895 55.1928 45.791 55.5048 45.583C55.8255 45.3663 56.0725 45.0673 56.2458 44.686C56.4278 44.3047 56.5188 43.8713 56.5188 43.386C56.5188 42.9007 56.4278 42.4673 56.2458 42.086C56.0725 41.696 55.8255 41.397 55.5048 41.189C55.1928 40.9723 54.8375 40.864 54.4388 40.864C53.8235 40.864 53.3295 41.1023 52.9568 41.579C52.5928 42.047 52.4108 42.6493 52.4108 43.386C52.4108 44.1227 52.5928 44.725 52.9568 45.193C53.3295 45.661 53.8235 45.895 54.4388 45.895ZM62.5796 47.143C61.8776 47.143 61.2492 46.9827 60.6946 46.662C60.1486 46.3413 59.7196 45.895 59.4076 45.323C59.1042 44.7423 58.9526 44.0837 58.9526 43.347C58.9526 42.6277 59.1042 41.9863 59.4076 41.423C59.7196 40.8597 60.1486 40.4177 60.6946 40.097C61.2492 39.7763 61.8776 39.616 62.5796 39.616C63.2816 39.616 63.9056 39.7763 64.4516 40.097C65.0062 40.4177 65.4352 40.8597 65.7386 41.423C66.0506 41.9863 66.2066 42.6277 66.2066 43.347C66.2066 44.075 66.0549 44.7293 65.7516 45.31C65.4482 45.882 65.0192 46.3327 64.4646 46.662C63.9186 46.9827 63.2902 47.143 62.5796 47.143ZM62.5796 45.895C62.9956 45.895 63.3682 45.7867 63.6976 45.57C64.0269 45.3533 64.2826 45.05 64.4646 44.66C64.6552 44.27 64.7506 43.8323 64.7506 43.347C64.7506 42.879 64.6552 42.4587 64.4646 42.086C64.2826 41.7047 64.0269 41.4057 63.6976 41.189C63.3682 40.9723 62.9956 40.864 62.5796 40.864C62.1636 40.864 61.7909 40.9723 61.4616 41.189C61.1322 41.397 60.8722 41.6917 60.6816 42.073C60.4996 42.4457 60.4086 42.8703 60.4086 43.347C60.4086 43.841 60.4996 44.283 60.6816 44.673C60.8722 45.0543 61.1322 45.3533 61.4616 45.57C61.7909 45.7867 62.1636 45.895 62.5796 45.895ZM71.4188 49.678C71.3062 49.678 71.2498 49.6217 71.2498 49.509V48.599C71.2498 48.4863 71.3062 48.43 71.4188 48.43H71.9908C72.2682 48.43 72.4718 48.3953 72.6018 48.326C72.7318 48.2567 72.8488 48.0833 72.9528 47.806L73.2388 47.078C73.2562 47.026 73.2648 46.9913 73.2648 46.974C73.2648 46.9393 73.2562 46.896 73.2388 46.844L70.6128 39.954L70.5868 39.876C70.5868 39.798 70.6345 39.759 70.7298 39.759H71.9518C72.0472 39.759 72.1078 39.8023 72.1338 39.889L73.9148 44.881C73.9408 44.959 73.9755 44.998 74.0188 44.998C74.0708 44.998 74.1098 44.959 74.1358 44.881L75.7738 39.902C75.7998 39.8067 75.8648 39.759 75.9688 39.759H77.1518C77.2125 39.759 77.2558 39.7763 77.2818 39.811C77.3078 39.8457 77.3122 39.8933 77.2948 39.954L74.3438 48.144C74.1358 48.7247 73.8888 49.1233 73.6028 49.34C73.3168 49.5653 72.9138 49.678 72.3938 49.678H71.4188ZM81.7622 47.143C81.0602 47.143 80.4318 46.9827 79.8772 46.662C79.3312 46.3413 78.9022 45.895 78.5902 45.323C78.2868 44.7423 78.1352 44.0837 78.1352 43.347C78.1352 42.6277 78.2868 41.9863 78.5902 41.423C78.9022 40.8597 79.3312 40.4177 79.8772 40.097C80.4318 39.7763 81.0602 39.616 81.7622 39.616C82.4642 39.616 83.0882 39.7763 83.6342 40.097C84.1888 40.4177 84.6178 40.8597 84.9212 41.423C85.2332 41.9863 85.3892 42.6277 85.3892 43.347C85.3892 44.075 85.2375 44.7293 84.9342 45.31C84.6308 45.882 84.2018 46.3327 83.6472 46.662C83.1012 46.9827 82.4728 47.143 81.7622 47.143ZM81.7622 45.895C82.1782 45.895 82.5508 45.7867 82.8802 45.57C83.2095 45.3533 83.4652 45.05 83.6472 44.66C83.8378 44.27 83.9332 43.8323 83.9332 43.347C83.9332 42.879 83.8378 42.4587 83.6472 42.086C83.4652 41.7047 83.2095 41.4057 82.8802 41.189C82.5508 40.9723 82.1782 40.864 81.7622 40.864C81.3462 40.864 80.9735 40.9723 80.6442 41.189C80.3148 41.397 80.0548 41.6917 79.8642 42.073C79.6822 42.4457 79.5912 42.8703 79.5912 43.347C79.5912 43.841 79.6822 44.283 79.8642 44.673C80.0548 45.0543 80.3148 45.3533 80.6442 45.57C80.9735 45.7867 81.3462 45.895 81.7622 45.895ZM89.2961 47.143C88.2387 47.143 87.5064 46.7487 87.0991 45.96C86.9864 45.7347 86.9041 45.4747 86.8521 45.18C86.8087 44.8853 86.7871 44.4997 86.7871 44.023V39.928C86.7871 39.8153 86.8434 39.759 86.9561 39.759H88.0481C88.1607 39.759 88.2171 39.8153 88.2171 39.928V44.036C88.2171 44.7727 88.3427 45.284 88.5941 45.57C88.8194 45.8127 89.1574 45.934 89.6081 45.934C90.1281 45.934 90.5311 45.7693 90.8171 45.44C91.0077 45.232 91.1464 44.9503 91.2331 44.595C91.3197 44.2397 91.3631 43.7587 91.3631 43.152V39.928C91.3631 39.8153 91.4194 39.759 91.5321 39.759H92.6241C92.7367 39.759 92.7931 39.8153 92.7931 39.928V46.831C92.7931 46.9437 92.7367 47 92.6241 47H91.5321C91.4194 47 91.3631 46.9437 91.3631 46.831V46.298C91.3631 46.2113 91.3327 46.168 91.2721 46.168C91.2374 46.168 91.1941 46.1983 91.1421 46.259C90.8647 46.571 90.5787 46.7963 90.2841 46.935C89.9894 47.0737 89.6601 47.143 89.2961 47.143ZM99.7898 47C99.6945 47 99.6338 46.9523 99.6078 46.857L97.5278 39.941V39.889C97.5278 39.8023 97.5798 39.759 97.6838 39.759H98.8538C98.9578 39.759 99.0185 39.8023 99.0358 39.889L100.284 44.439C100.31 44.5257 100.344 44.569 100.388 44.569C100.44 44.569 100.474 44.5257 100.492 44.439L101.935 39.889C101.978 39.8023 102.043 39.759 102.13 39.759H103.092C103.196 39.759 103.261 39.8023 103.287 39.889L104.73 44.439C104.756 44.5257 104.795 44.569 104.847 44.569C104.89 44.569 104.925 44.5257 104.951 44.439L106.212 39.889C106.238 39.8023 106.298 39.759 106.394 39.759H107.564C107.624 39.759 107.668 39.7763 107.694 39.811C107.72 39.837 107.724 39.8803 107.707 39.941L105.601 46.87C105.575 46.9567 105.514 47 105.419 47H104.379C104.275 47 104.21 46.9523 104.184 46.857L102.728 42.112C102.719 42.034 102.684 41.995 102.624 41.995C102.58 41.995 102.546 42.034 102.52 42.112L101.025 46.857C100.999 46.9523 100.934 47 100.83 47H99.7898ZM110.957 47.143C110.247 47.143 109.675 46.9567 109.241 46.584C108.808 46.2027 108.591 45.687 108.591 45.037C108.591 44.3697 108.851 43.8453 109.371 43.464C109.761 43.178 110.32 42.9657 111.048 42.827L113.258 42.398C113.302 42.3893 113.336 42.372 113.362 42.346C113.397 42.3113 113.41 42.268 113.401 42.216C113.358 41.7653 113.228 41.4317 113.011 41.215C112.725 40.929 112.344 40.786 111.867 40.786C111.503 40.786 111.178 40.8813 110.892 41.072C110.615 41.2627 110.429 41.5227 110.333 41.852C110.299 41.956 110.234 42.008 110.138 42.008H109.059C108.938 42.008 108.886 41.943 108.903 41.813C109.059 41.111 109.415 40.5693 109.969 40.188C110.524 39.8067 111.161 39.616 111.88 39.616C112.305 39.616 112.704 39.681 113.076 39.811C113.458 39.9323 113.778 40.1143 114.038 40.357C114.385 40.6777 114.602 41.0547 114.688 41.488C114.784 41.9213 114.831 42.4197 114.831 42.983V46.831C114.831 46.9437 114.775 47 114.662 47H113.57C113.458 47 113.401 46.9437 113.401 46.831V46.272C113.401 46.1767 113.38 46.129 113.336 46.129C113.302 46.129 113.267 46.1507 113.232 46.194C113.042 46.428 112.847 46.6057 112.647 46.727C112.214 47.0043 111.651 47.143 110.957 47.143ZM111.243 45.96C111.625 45.96 111.971 45.882 112.283 45.726C112.682 45.5267 112.968 45.2623 113.141 44.933C113.315 44.595 113.41 44.1703 113.427 43.659C113.427 43.5983 113.41 43.555 113.375 43.529C113.341 43.4943 113.297 43.4857 113.245 43.503L111.386 43.867C110.884 43.971 110.52 44.127 110.294 44.335C110.112 44.517 110.021 44.738 110.021 44.998C110.021 45.3013 110.13 45.5397 110.346 45.713C110.572 45.8777 110.871 45.96 111.243 45.96ZM116.651 47C116.538 47 116.482 46.9437 116.482 46.831V39.928C116.482 39.8153 116.538 39.759 116.651 39.759H117.743C117.856 39.759 117.912 39.8153 117.912 39.928V40.461C117.912 40.5563 117.938 40.604 117.99 40.604C118.033 40.604 118.072 40.578 118.107 40.526C118.393 40.1967 118.683 39.9627 118.978 39.824C119.281 39.6853 119.611 39.616 119.966 39.616C121.049 39.616 121.782 40.006 122.163 40.786C122.31 41.072 122.401 41.3667 122.436 41.67C122.471 41.9647 122.488 42.32 122.488 42.736V46.831C122.488 46.9437 122.432 47 122.319 47H121.227C121.114 47 121.058 46.9437 121.058 46.831V42.723C121.058 41.9863 120.932 41.475 120.681 41.189C120.447 40.9463 120.109 40.825 119.667 40.825C119.138 40.825 118.731 40.9897 118.445 41.319C118.254 41.527 118.116 41.8087 118.029 42.164C117.951 42.5193 117.912 43.0003 117.912 43.607V46.831C117.912 46.9437 117.856 47 117.743 47H116.651ZM126.273 47C125.71 47 125.285 46.87 124.999 46.61C124.713 46.35 124.57 45.9123 124.57 45.297V41.124C124.57 41.0113 124.514 40.955 124.401 40.955H123.621C123.508 40.955 123.452 40.8987 123.452 40.786V39.928C123.452 39.8153 123.508 39.759 123.621 39.759H124.401C124.514 39.759 124.57 39.7027 124.57 39.59V37.25C124.57 37.1373 124.626 37.081 124.739 37.081H125.831C125.944 37.081 126 37.1373 126 37.25V39.59C126 39.7027 126.056 39.759 126.169 39.759H127.339C127.452 39.759 127.508 39.8153 127.508 39.928V40.786C127.508 40.8987 127.452 40.955 127.339 40.955H126.169C126.056 40.955 126 41.0113 126 41.124V44.92C126 45.2233 126.043 45.4443 126.13 45.583C126.217 45.7217 126.416 45.791 126.728 45.791H127.326C127.439 45.791 127.495 45.8473 127.495 45.96V46.831C127.495 46.9437 127.439 47 127.326 47H126.273ZM130.837 43.646C130.837 43.1607 130.902 42.7577 131.032 42.437C131.162 42.1077 131.318 41.852 131.5 41.67C131.691 41.488 131.933 41.2887 132.228 41.072C132.566 40.8293 132.813 40.6083 132.969 40.409C133.134 40.201 133.216 39.915 133.216 39.551C133.216 39.0917 133.064 38.7407 132.761 38.498C132.466 38.2467 132.068 38.121 131.565 38.121C131.019 38.121 130.586 38.277 130.265 38.589C129.953 38.901 129.775 39.3387 129.732 39.902H128.432C128.484 38.9833 128.792 38.2597 129.355 37.731C129.927 37.2023 130.655 36.938 131.539 36.938C132.414 36.938 133.134 37.172 133.697 37.64C134.26 38.0993 134.542 38.7623 134.542 39.629C134.542 40.0017 134.486 40.318 134.373 40.578C134.269 40.838 134.139 41.0503 133.983 41.215C133.827 41.371 133.615 41.5487 133.346 41.748C133.095 41.9387 132.895 42.1077 132.748 42.255C132.601 42.4023 132.471 42.593 132.358 42.827C132.254 43.0523 132.193 43.3297 132.176 43.659L132.137 44.114H130.837V43.646ZM131.474 47.143C131.231 47.143 131.019 47.052 130.837 46.87C130.655 46.688 130.564 46.4713 130.564 46.22C130.564 45.9773 130.651 45.7693 130.824 45.596C131.006 45.4227 131.223 45.336 131.474 45.336C131.725 45.336 131.938 45.4227 132.111 45.596C132.284 45.7693 132.371 45.9773 132.371 46.22C132.371 46.48 132.284 46.701 132.111 46.883C131.938 47.0563 131.725 47.143 131.474 47.143Z" fill="#13F584"/>
</g>
<defs>
<filter id="filter0_d_19140_206813" x="0" y="0" width="287" height="65.5" filterUnits="userSpaceOnUse" color-interpolation-filters="sRGB">
<feFlood flood-opacity="0" result="BackgroundImageFix"/>
<feColorMatrix in="SourceAlpha" type="matrix" values="0 0 0 0 0 0 0 0 0 0 0 0 0 0 0 0 0 0 127 0" result="hardAlpha"/>
<feMorphology radius="0.5" operator="erode" in="SourceAlpha" result="effect1_dropShadow_19140_206813"/>
<feOffset dy="1"/>
<feGaussianBlur stdDeviation="0.5"/>
<feComposite in2="hardAlpha" operator="out"/>
<feColorMatrix type="matrix" values="0 0 0 0 0 0 0 0 0 0 0 0 0 0 0 0 0 0 0.09 0"/>
<feBlend mode="normal" in2="BackgroundImageFix" result="effect1_dropShadow_19140_206813"/>
<feBlend mode="normal" in="SourceGraphic" in2="effect1_dropShadow_19140_206813" result="shape"/>
</filter>
</defs>
</svg>
