<svg width="500" height="500" viewBox="0 0 500 500" fill="none" xmlns="http://www.w3.org/2000/svg">
<mask id="mask0_19416_351138" style="mask-type:alpha" maskUnits="userSpaceOnUse" x="0" y="0" width="500" height="500">
<rect width="500" height="500" fill="url(#paint0_radial_19416_351138)"/>
</mask>
<g mask="url(#mask0_19416_351138)">
<line x1="49.581" y1="-61.4526" x2="49.581" y2="561.452" stroke="#565656" stroke-width="0.465549"/>
<line x1="118.482" y1="-61.4526" x2="118.482" y2="561.452" stroke="#565656" stroke-width="0.465549"/>
<line x1="187.384" y1="-61.4526" x2="187.384" y2="561.452" stroke="#565656" stroke-width="0.465549"/>
<line x1="256.285" y1="-61.4526" x2="256.285" y2="561.452" stroke="#565656" stroke-width="0.465549"/>
<line x1="325.186" y1="-61.4526" x2="325.186" y2="561.452" stroke="#565656" stroke-width="0.465549"/>
<line x1="394.088" y1="-61.4526" x2="394.088" y2="561.452" stroke="#565656" stroke-width="0.465549"/>
<line x1="462.989" y1="-61.4526" x2="462.989" y2="561.452" stroke="#565656" stroke-width="0.465549"/>
<line x1="-69.3668" y1="446.927" x2="569.367" y2="446.927" stroke="#565656" stroke-width="0.465549"/>
<line x1="-69.3668" y1="378.026" x2="569.367" y2="378.026" stroke="#565656" stroke-width="0.465549"/>
<line x1="-69.3668" y1="309.125" x2="569.367" y2="309.125" stroke="#565656" stroke-width="0.465549"/>
<line x1="-69.3668" y1="240.224" x2="569.367" y2="240.224" stroke="#565656" stroke-width="0.465549"/>
<line x1="-69.3668" y1="171.322" x2="569.367" y2="171.322" stroke="#565656" stroke-width="0.465549"/>
<line x1="-69.3668" y1="102.421" x2="569.367" y2="102.421" stroke="#565656" stroke-width="0.465549"/>
<line x1="-69.3668" y1="33.5194" x2="569.367" y2="33.5194" stroke="#565656" stroke-width="0.465549"/>
<rect x="49.581" y="102.653" width="68.4358" height="68.4358" fill="#13F584" fill-opacity="0.05" stroke="#565656" stroke-width="0.465549"/>
<rect x="256.285" y="240.456" width="68.4358" height="68.4358" fill="#13F584" fill-opacity="0.05" stroke="#565656" stroke-width="0.465549"/>
<rect x="256.285" y="102.653" width="68.4358" height="68.4358" fill="#13F584" fill-opacity="0.05" stroke="#565656" stroke-width="0.465549"/>
<rect x="325.186" y="-35.1491" width="68.4358" height="68.4358" fill="#13F584" fill-opacity="0.05" stroke="#565656" stroke-width="0.465549"/>
</g>
<defs>
<radialGradient id="paint0_radial_19416_351138" cx="0" cy="0" r="1" gradientUnits="userSpaceOnUse" gradientTransform="translate(250 250) rotate(90) scale(198.79)">
<stop stop-color="#5C5C5C"/>
<stop offset="1" stop-color="#737373" stop-opacity="0"/>
</radialGradient>
</defs>
</svg>
