<svg width="20" height="20" viewBox="0 0 20 20" fill="none" xmlns="http://www.w3.org/2000/svg">
<path d="M17.0711 2.92891C15.1823 1.0402 12.6711 0 10 0C7.32891 0 4.8177 1.0402 2.92891 2.92891C1.0402 4.8177 0 7.32891 0 10C0 12.6711 1.0402 15.1823 2.92891 17.0711C4.8177 18.9598 7.32891 20 10 20C12.6711 20 15.1823 18.9598 17.0711 17.0711C18.9598 15.1823 20 12.6711 20 10C20 7.32891 18.9598 4.8177 17.0711 2.92891ZM4.6875 10.9375C4.6875 11.4553 4.26777 11.875 3.75 11.875C3.23223 11.875 2.8125 11.4553 2.8125 10.9375V9.0625C2.8125 8.54473 3.23223 8.125 3.75 8.125C4.26777 8.125 4.6875 8.54473 4.6875 9.0625V10.9375ZM7.8125 12.5C7.8125 13.0178 7.39277 13.4375 6.875 13.4375C6.35723 13.4375 5.9375 13.0178 5.9375 12.5V7.5C5.9375 6.98223 6.35723 6.5625 6.875 6.5625C7.39277 6.5625 7.8125 6.98223 7.8125 7.5V12.5ZM10.9375 14.375C10.9375 14.8928 10.5178 15.3125 10 15.3125C9.48223 15.3125 9.0625 14.8928 9.0625 14.375V5.625C9.0625 5.10723 9.48223 4.6875 10 4.6875C10.5178 4.6875 10.9375 5.10723 10.9375 5.625V14.375ZM14.0625 12.5C14.0625 13.0178 13.6428 13.4375 13.125 13.4375C12.6072 13.4375 12.1875 13.0178 12.1875 12.5V7.5C12.1875 6.98223 12.6072 6.5625 13.125 6.5625C13.6428 6.5625 14.0625 6.98223 14.0625 7.5V12.5ZM16.25 11.875C15.7322 11.875 15.3125 11.4553 15.3125 10.9375V9.0625C15.3125 8.54473 15.7322 8.125 16.25 8.125C16.7678 8.125 17.1875 8.54473 17.1875 9.0625V10.9375C17.1875 11.4553 16.7678 11.875 16.25 11.875Z" fill="#13F584"/>
</svg>
