<svg width="24" height="24" viewBox="0 0 24 24" fill="none" xmlns="http://www.w3.org/2000/svg">
<path d="M19.0711 4.92891C17.1823 3.0402 14.6711 2 12 2C9.32891 2 6.8177 3.0402 4.92891 4.92891C3.0402 6.8177 2 9.32891 2 12C2 14.6711 3.0402 17.1823 4.92891 19.0711C6.8177 20.9598 9.32891 22 12 22C14.6711 22 17.1823 20.9598 19.0711 19.0711C20.9598 17.1823 22 14.6711 22 12C22 9.32891 20.9598 6.8177 19.0711 4.92891ZM6.6875 12.9375C6.6875 13.4553 6.26777 13.875 5.75 13.875C5.23223 13.875 4.8125 13.4553 4.8125 12.9375V11.0625C4.8125 10.5447 5.23223 10.125 5.75 10.125C6.26777 10.125 6.6875 10.5447 6.6875 11.0625V12.9375ZM9.8125 14.5C9.8125 15.0178 9.39277 15.4375 8.875 15.4375C8.35723 15.4375 7.9375 15.0178 7.9375 14.5V9.5C7.9375 8.98223 8.35723 8.5625 8.875 8.5625C9.39277 8.5625 9.8125 8.98223 9.8125 9.5V14.5ZM12.9375 16.375C12.9375 16.8928 12.5178 17.3125 12 17.3125C11.4822 17.3125 11.0625 16.8928 11.0625 16.375V7.625C11.0625 7.10723 11.4822 6.6875 12 6.6875C12.5178 6.6875 12.9375 7.10723 12.9375 7.625V16.375ZM16.0625 14.5C16.0625 15.0178 15.6428 15.4375 15.125 15.4375C14.6072 15.4375 14.1875 15.0178 14.1875 14.5V9.5C14.1875 8.98223 14.6072 8.5625 15.125 8.5625C15.6428 8.5625 16.0625 8.98223 16.0625 9.5V14.5ZM18.25 13.875C17.7322 13.875 17.3125 13.4553 17.3125 12.9375V11.0625C17.3125 10.5447 17.7322 10.125 18.25 10.125C18.7678 10.125 19.1875 10.5447 19.1875 11.0625V12.9375C19.1875 13.4553 18.7678 13.875 18.25 13.875Z" fill="white"/>
</svg>
